<svg width="218" height="64" viewBox="0 0 218 64" fill="none" xmlns="http://www.w3.org/2000/svg">
<path d="M15.8897 12.2948C11.6655 12.2948 8.08252 14.061 4.97588 17.6845V0H0.168945V44.3647H4.97588V31.1602C4.97588 26.4166 5.36864 23.4949 7.50984 20.6949C9.50914 18.0849 12.0786 16.7596 15.1472 16.7596C20.4027 16.7596 22.7466 20.0386 22.7466 27.3871V44.3647H27.5535V26.4723C27.5535 17.5959 23.1951 12.2948 15.8922 12.2948H15.8897Z" fill="#000235"/>
<path d="M49.4471 12.2946C40.3122 12.2946 33.1562 19.5518 33.1562 28.8135C33.1562 38.0751 40.3122 45.1626 49.4471 45.1626C58.5821 45.1626 65.738 37.9814 65.738 28.8135C65.738 19.6456 58.5821 12.2946 49.4471 12.2946ZM60.817 28.8718C60.817 35.3764 55.8226 40.4723 49.4471 40.4723C43.0717 40.4723 38.0772 35.3764 38.0772 28.8718C38.0772 22.3671 43.1781 16.9875 49.4471 16.9875C55.7161 16.9875 60.817 22.4304 60.817 28.8718Z" fill="#000235"/>
<path d="M86.4359 12.2946C77.3009 12.2946 70.145 19.5518 70.145 28.8135C70.145 38.0751 77.3009 45.1626 86.4359 45.1626C95.5708 45.1626 102.727 37.9814 102.727 28.8135C102.727 19.6456 95.5708 12.2946 86.4359 12.2946ZM97.8058 28.8718C97.8058 35.3764 92.8113 40.4723 86.4359 40.4723C80.0604 40.4723 75.066 35.3764 75.066 28.8718C75.066 22.3671 80.1669 16.9875 86.4359 16.9875C92.7049 16.9875 97.8058 22.4304 97.8058 28.8718Z" fill="#000235"/>
<path d="M116.574 28.0206L133.741 13.0955H126.568L113.199 24.7746V0H108.392V44.3647H113.199V31.2742L127.764 44.3647H134.679L116.574 28.0206Z" fill="#000235"/>
<path d="M142.079 7.75121C143.731 7.75121 145.125 6.355 145.125 4.70539C145.125 3.05577 143.759 1.70264 142.079 1.70264C140.399 1.70264 139.076 3.04817 139.076 4.70539C139.076 6.3626 140.422 7.75121 142.079 7.75121Z" fill="#000235"/>
<path d="M144.535 13.0953H139.728V44.3619H144.535V13.0953Z" fill="#000235"/>
<path d="M168.09 12.2946C163.927 12.2946 160.262 14.1063 157.176 17.6868V13.0953H152.369V44.3619H157.176V31.1574C157.176 26.2998 157.556 23.4947 159.71 20.6921C161.709 18.0821 164.279 16.7569 167.347 16.7569C172.643 16.7569 175.003 20.0358 175.003 27.3843V44.3619H179.809V26.8725C179.809 17.7451 175.428 12.2946 168.09 12.2946Z" fill="#000235"/>
<path d="M201.538 45.1626C210.673 45.1626 217.829 37.9814 217.829 28.8135C217.829 19.6456 210.673 12.2946 201.538 12.2946C192.403 12.2946 185.247 19.5518 185.247 28.8135C185.247 38.0751 192.403 45.1626 201.538 45.1626ZM201.538 16.9849C207.701 16.9849 212.908 22.4279 212.908 28.8692C212.908 35.3106 207.913 40.4697 201.538 40.4697C195.162 40.4697 190.168 35.3739 190.168 28.8692C190.168 22.3645 195.269 16.9849 201.538 16.9849Z" fill="#000235"/>
<path d="M212.908 47.7093C212.908 54.214 207.913 59.3098 201.538 59.3098C197.58 59.3098 194.06 57.3891 192 54.1405L196.784 53.1092L185.407 45.2057L185.331 45.9862C185.277 46.5386 185.25 47.0986 185.25 47.651C185.25 56.8189 192.405 64.0002 201.54 64.0002C210.675 64.0002 217.831 56.8189 217.831 47.651V47.1848L212.91 47.2557V47.7093H212.908Z" fill="#FF7145"/>
</svg>
