<svg width="46" height="46" viewBox="0 0 46 46" fill="none" xmlns="http://www.w3.org/2000/svg">
<path d="M20.0005 26.0012L26.0009 20.0007M22.0006 17.0005L22.4636 16.4644C23.4015 15.5267 24.6735 14.9999 25.9997 15C27.326 15.0001 28.5979 15.527 29.5356 16.4649C30.4733 17.4028 31.0001 18.6748 31 20.0011C30.9999 21.3273 30.473 22.5993 29.5351 23.537L29.0011 24.001M24.0007 29.0015L23.6037 29.5355C22.6549 30.4738 21.3744 31 20.04 31C18.7056 31 17.4251 30.4738 16.4762 29.5355C16.0086 29.0731 15.6373 28.5224 15.3839 27.9155C15.1305 27.3086 15 26.6574 15 25.9997C15 25.342 15.1305 24.6908 15.3839 24.0839C15.6373 23.477 16.0086 22.9264 16.4762 22.4639L17.0003 22.0009" stroke="#000235" stroke-opacity="0.2" stroke-width="2" stroke-linecap="round" stroke-linejoin="round"/>
<rect x="0.5" y="0.5" width="45" height="45" rx="22.5" stroke="#000235" stroke-opacity="0.15"/>
</svg>
