<svg width="152" height="48" viewBox="0 0 152 48" fill="none" xmlns="http://www.w3.org/2000/svg">
<g id="button / logo">
<g id="Group 10746">
<path id="Vector" d="M10.9039 11.6965C7.97408 11.6965 5.48888 12.9366 3.3341 15.4808V3.06384H0V34.2122H3.3341V24.9408C3.3341 21.6101 3.60653 19.5587 5.09167 17.5927C6.47839 15.7602 8.26057 14.8296 10.389 14.8296C14.0342 14.8296 15.6599 17.1319 15.6599 22.2916V34.2122H18.994V21.6511C18.994 15.4186 15.971 11.6965 10.9057 11.6965H10.9039Z" fill="#000235"/>
<path id="Vector_2" d="M34.1773 11.694C27.8413 11.694 22.8779 16.7896 22.8779 23.2925C22.8779 29.7955 27.8413 34.7719 34.1773 34.7719C40.5134 34.7719 45.4767 29.7296 45.4767 23.2925C45.4767 16.8554 40.5134 11.694 34.1773 11.694ZM42.0635 23.3334C42.0635 27.9006 38.5994 31.4786 34.1773 31.4786C29.7553 31.4786 26.2911 27.9006 26.2911 23.3334C26.2911 18.7663 29.8291 14.989 34.1773 14.989C38.5256 14.989 42.0635 18.8107 42.0635 23.3334Z" fill="#000235"/>
<path id="Vector_3" d="M59.8346 11.694C53.4985 11.694 48.5352 16.7896 48.5352 23.2925C48.5352 29.7955 53.4985 34.7719 59.8346 34.7719C66.1706 34.7719 71.134 29.7296 71.134 23.2925C71.134 16.8554 66.1706 11.694 59.8346 11.694ZM67.7208 23.3334C67.7208 27.9006 64.2566 31.4786 59.8346 31.4786C55.4125 31.4786 51.9483 27.9006 51.9483 23.3334C51.9483 18.7663 55.4863 14.989 59.8346 14.989C64.1828 14.989 67.7208 18.8107 67.7208 23.3334Z" fill="#000235"/>
<path id="Vector_4" d="M80.745 22.7382L92.6543 12.2587H87.6768L78.4039 20.459V3.06384H75.0698V34.2122H78.4039V25.0226L88.5064 34.2122H93.3046L80.745 22.7382Z" fill="#000235"/>
<g id="Group">
<path id="Vector_5" d="M98.4226 8.50487C99.5685 8.50487 100.535 7.52453 100.535 6.36628C100.535 5.20802 99.5878 4.25793 98.4226 4.25793C97.2573 4.25793 96.3398 5.20269 96.3398 6.36628C96.3398 7.52987 97.2731 8.50487 98.4226 8.50487Z" fill="#000235"/>
<path id="Vector_6" d="M100.125 12.2573H96.7905V34.2108H100.125V12.2573Z" fill="#000235"/>
</g>
<path id="Vector_7" d="M116.47 11.694C113.583 11.694 111.041 12.9661 108.901 15.4801V12.2562H105.566V34.2097H108.901V24.9383C108.901 21.5276 109.164 19.558 110.658 17.5902C112.045 15.7576 113.827 14.8271 115.955 14.8271C119.629 14.8271 121.265 17.1294 121.265 22.2891V34.2097H124.599V21.9297C124.599 15.521 121.56 11.694 116.47 11.694Z" fill="#000235"/>
<g id="Group_2">
<path id="Vector_8" d="M139.665 34.7772C146.001 34.7772 150.965 29.735 150.965 23.2979C150.965 16.8608 146.001 11.6993 139.665 11.6993C133.329 11.6993 128.366 16.7949 128.366 23.2979C128.366 29.8008 133.329 34.7772 139.665 34.7772ZM139.665 14.9926C143.94 14.9926 147.551 18.8143 147.551 23.337C147.551 27.8598 144.087 31.4822 139.665 31.4822C135.243 31.4822 131.779 27.9042 131.779 23.337C131.779 18.7699 135.317 14.9926 139.665 14.9926Z" fill="#000235"/>
<path id="Vector_9" d="M147.554 36.5624C147.554 41.1296 144.09 44.7076 139.668 44.7076C136.923 44.7076 134.482 43.3589 133.053 41.078L136.371 40.3539L128.48 34.8046L128.427 35.3526C128.39 35.7404 128.371 36.1336 128.371 36.5215C128.371 42.9586 133.334 48.0008 139.67 48.0008C146.006 48.0008 150.969 42.9586 150.969 36.5215V36.1941L147.556 36.2439V36.5624H147.554Z" fill="#FF7145"/>
</g>
</g>
</g>
</svg>
