<svg width="15" height="18" viewBox="0 0 15 18" fill="none" xmlns="http://www.w3.org/2000/svg">
<path id="Vector" d="M7.4643 3.07013V0.467798C7.4643 0.0480679 6.95593 -0.157134 6.66409 0.141341L3.08668 3.6764C2.8984 3.86295 2.8984 4.1521 3.08668 4.33865L6.65468 7.87371C6.95593 8.16286 7.4643 7.95766 7.4643 7.53793V4.9356C10.9758 4.9356 13.753 8.12555 12.981 11.7352C12.5386 13.8525 10.8064 15.5594 8.67874 15.9978C5.31786 16.6974 2.32413 14.4122 1.87225 11.3248C1.83868 11.1056 1.72738 10.9054 1.55831 10.7601C1.38924 10.6148 1.17345 10.5339 0.949651 10.532C0.384796 10.532 -0.0670869 11.0264 0.00822704 11.586C0.59191 15.6807 4.52706 18.7121 8.97999 17.854C11.9172 17.285 14.2802 14.9438 14.8545 12.0337C15.7865 7.24878 12.1149 3.07013 7.4643 3.07013Z" fill="#000235" fill-opacity="0.4"/>
</svg>
