<svg width="161" height="107" viewBox="0 0 161 107" fill="none" xmlns="http://www.w3.org/2000/svg">
<path id="Exclude" fill-rule="evenodd" clip-rule="evenodd" d="M76.6898 97.2431C69.7722 100.918 61.8793 103 53.5 103C26.1619 103 4 80.8381 4 53.5C4 26.1619 26.1619 4 53.5 4C61.8793 4 69.7722 6.082 76.6898 9.75691C62.9643 19.4421 54 35.4242 54 53.5C54 71.5758 62.9643 87.5579 76.6898 97.2431ZM80.5 99.6971C72.5746 104.339 63.3481 107 53.5 107C23.9528 107 0 83.0472 0 53.5C0 23.9528 23.9528 0 53.5 0C63.3481 0 72.5746 2.66086 80.5 7.30287C79.1936 8.06806 77.9225 8.88709 76.6898 9.75691C92.3415 18.0717 103 34.5412 103 53.5C103 72.4588 92.3415 88.9283 76.6898 97.2431C77.9225 98.1129 79.1936 98.9319 80.5 99.6971ZM80.5 99.6971C88.4254 104.339 97.6519 107 107.5 107C137.047 107 161 83.0472 161 53.5C161 23.9528 137.047 0 107.5 0C97.6519 0 88.4254 2.66086 80.5 7.30287C96.3532 16.5883 107 33.8008 107 53.5C107 73.1992 96.3532 90.4117 80.5 99.6971Z" fill="#FF7145"/>
</svg>
