<svg width="15" height="18" viewBox="0 0 15 18" fill="none" xmlns="http://www.w3.org/2000/svg">
<path id="Vector" d="M11.4498 1H2.87835C2.42369 1 1.98766 1.19114 1.66617 1.53136C1.34467 1.87158 1.16406 2.33303 1.16406 2.81418V16.5457C1.16409 16.6251 1.18382 16.7031 1.22128 16.772C1.25875 16.8408 1.31264 16.898 1.37755 16.9378C1.44247 16.9777 1.51614 16.9988 1.59119 16.9991C1.66624 16.9994 1.74004 16.9788 1.80521 16.9394L6.31378 14.2136C6.57274 14.057 6.86582 13.9747 7.16406 13.9747C7.4623 13.9747 7.75538 14.057 8.01435 14.2136L12.5229 16.9403C12.5882 16.9797 12.662 17.0003 12.7372 17C12.8123 16.9997 12.886 16.9785 12.9509 16.9385C13.0159 16.8986 13.0698 16.8412 13.1072 16.7723C13.1446 16.7033 13.1642 16.6252 13.1641 16.5457V2.81418C13.1641 2.33303 12.9834 1.87158 12.662 1.53136C12.3405 1.19114 11.9044 1 11.4498 1Z" stroke="white" stroke-width="2" stroke-linecap="round" stroke-linejoin="round"/>
</svg>
