<svg width="32" height="32" viewBox="0 0 32 32" fill="none" xmlns="http://www.w3.org/2000/svg">
<circle cx="16" cy="16" r="16" fill="#FF7145"/>
<path d="M20.7497 9.604V22.19H18.9997V9.604H20.7497ZM10.7117 14.966C10.7117 14.07 10.8517 13.286 11.1317 12.614C11.4211 11.9327 11.8131 11.41 12.3077 11.046C12.8117 10.682 13.3811 10.5 14.0157 10.5C14.6411 10.5 15.2011 10.682 15.6957 11.046C16.1997 11.41 16.5917 11.9327 16.8717 12.614C17.1517 13.286 17.2917 14.07 17.2917 14.966C17.2917 15.8713 17.1517 16.6647 16.8717 17.346C16.5917 18.018 16.1997 18.536 15.6957 18.9C15.2011 19.264 14.6411 19.446 14.0157 19.446C13.3811 19.446 12.8117 19.264 12.3077 18.9C11.8131 18.536 11.4211 18.018 11.1317 17.346C10.8517 16.6647 10.7117 15.8713 10.7117 14.966ZM12.3917 14.966C12.3917 15.89 12.5364 16.6087 12.8257 17.122C13.1244 17.626 13.5211 17.878 14.0157 17.878C14.5011 17.878 14.8884 17.626 15.1777 17.122C15.4764 16.6087 15.6257 15.89 15.6257 14.966C15.6257 14.0513 15.4764 13.342 15.1777 12.838C14.8884 12.3247 14.5011 12.068 14.0157 12.068C13.5211 12.068 13.1244 12.32 12.8257 12.824C12.5364 13.328 12.3917 14.042 12.3917 14.966Z" fill="white"/>
</svg>
