<svg width="15" height="15" viewBox="0 0 15 15" fill="none" xmlns="http://www.w3.org/2000/svg">
<path id="Vector" d="M14.1906 12.3278C14.3783 12.5156 14.4838 12.7702 14.4838 13.0358C14.4838 13.3014 14.3783 13.5561 14.1906 13.7438C14.0028 13.9316 13.7481 14.0371 13.4825 14.0371C13.217 14.0371 12.9623 13.9316 12.7745 13.7438L7.48591 8.45359L2.19567 13.7422C2.00789 13.9299 1.7532 14.0354 1.48764 14.0354C1.22207 14.0354 0.967386 13.9299 0.779604 13.7422C0.591823 13.5544 0.486328 13.2997 0.486328 13.0341C0.486328 12.7686 0.591823 12.5139 0.779604 12.3261L6.06985 7.03753L0.78127 1.74728C0.593489 1.5595 0.487994 1.30481 0.487994 1.03925C0.487994 0.773687 0.593489 0.519 0.78127 0.331219C0.969052 0.143437 1.22374 0.0379422 1.4893 0.0379422C1.75486 0.0379422 2.00955 0.143437 2.19733 0.331219L7.48591 5.62146L12.7762 0.330385C12.9639 0.142604 13.2186 0.0371094 13.4842 0.0371094C13.7498 0.0371094 14.0044 0.142604 14.1922 0.330385C14.38 0.518167 14.4855 0.772853 14.4855 1.03842C14.4855 1.30398 14.38 1.55867 14.1922 1.74645L8.90197 7.03753L14.1906 12.3278Z" fill="#000235" fill-opacity="0.4"/>
</svg>
