<svg width="26" height="32" viewBox="0 0 26 32" fill="none" xmlns="http://www.w3.org/2000/svg">
<g id="icon / saved">
<path id="Vector" d="M21.5714 1H4.42857C3.51926 1 2.64719 1.35838 2.00421 1.9963C1.36122 2.63422 1 3.49943 1 4.40158V30.1482C1.00005 30.2971 1.03951 30.4434 1.11445 30.5724C1.18938 30.7015 1.29715 30.8087 1.42698 30.8835C1.55681 30.9582 1.70415 30.9978 1.85425 30.9983C2.00435 30.9988 2.15195 30.9602 2.28229 30.8863L11.2994 25.7754C11.8174 25.4819 12.4035 25.3275 13 25.3275C13.5965 25.3275 14.1826 25.4819 14.7006 25.7754L23.7177 30.888C23.8482 30.962 23.9959 31.0006 24.1462 31C24.2964 30.9994 24.4439 30.9597 24.5738 30.8847C24.7036 30.8098 24.8114 30.7023 24.8862 30.573C24.961 30.4438 25.0003 30.2972 25 30.1482V4.40158C25 3.49943 24.6388 2.63422 23.9958 1.9963C23.3528 1.35838 22.4807 1 21.5714 1Z" fill="#FF7145" stroke="#FF7145" stroke-linecap="round" stroke-linejoin="round"/>
</g>
</svg>
