<svg width="18" height="18" viewBox="0 0 18 18" fill="none" xmlns="http://www.w3.org/2000/svg">
<g id="icon / search">
<path id="Vector" d="M17.7241 16.1932L13.6436 12.1127C14.626 10.8049 15.1563 9.21299 15.1546 7.57728C15.1546 3.39919 11.7554 0 7.57728 0C3.39919 0 0 3.39919 0 7.57728C0 11.7554 3.39919 15.1546 7.57728 15.1546C9.21299 15.1563 10.8049 14.626 12.1127 13.6436L16.1932 17.7241C16.3998 17.9088 16.6692 18.0073 16.9461 17.9996C17.2231 17.9918 17.4865 17.8783 17.6824 17.6824C17.8783 17.4865 17.9918 17.2231 17.9996 16.9461C18.0073 16.6692 17.9088 16.3998 17.7241 16.1932ZM2.16494 7.57728C2.16494 6.50682 2.48237 5.4604 3.07708 4.57034C3.6718 3.68029 4.51709 2.98657 5.50607 2.57693C6.49504 2.16728 7.58328 2.0601 8.63318 2.26893C9.68307 2.47777 10.6475 2.99325 11.4044 3.75018C12.1613 4.5071 12.6768 5.47149 12.8856 6.52138C13.0945 7.57128 12.9873 8.65952 12.5776 9.64849C12.168 10.6375 11.4743 11.4828 10.5842 12.0775C9.69416 12.6722 8.64774 12.9896 7.57728 12.9896C6.14237 12.9879 4.76672 12.4171 3.75208 11.4025C2.73744 10.3878 2.16666 9.01219 2.16494 7.57728Z" fill="#000235"/>
</g>
</svg>
