<svg width="24" height="24" viewBox="0 0 24 24" fill="none" xmlns="http://www.w3.org/2000/svg">
<g id="Group">
<path id="Vector" d="M20.136 3.18044C19.3916 2.49448 18.5613 1.90039 17.6618 1.41843C15.9749 0.514166 14.0483 0 12 0C5.3731 0 0 5.3731 0 12C0 18.6269 5.3731 24 12 24C18.6269 24 24 18.6269 24 12C24 8.51178 22.5112 5.3731 20.1348 3.18044H20.136Z" fill="#FF7145"/>
<path id="Vector_2" d="M19.617 12.0405V2.73181C19.0109 2.23315 18.3572 1.79175 17.6605 1.41836C17.5424 1.35513 17.4207 1.29787 17.3002 1.23822V12.0679C17.3002 15.1303 14.9489 17.5293 11.9474 17.5293C10.084 17.5293 8.42698 16.625 7.4571 15.0957L9.70941 14.6101L4.35302 10.8893L4.31723 11.2567C4.29218 11.5168 4.27905 11.7804 4.27905 12.0405C4.27905 16.3566 7.64798 19.7375 11.9486 19.7375C16.2492 19.7375 19.6182 16.3566 19.6182 12.0405H19.617Z" fill="white"/>
</g>
</svg>
