<svg width="16" height="18" viewBox="0 0 16 18" fill="none" xmlns="http://www.w3.org/2000/svg">
    <path
        d="M12.2857 1H3.71429C3.25963 1 2.82359 1.19114 2.5021 1.53136C2.18061 1.87158 2 2.33303 2 2.81418V16.5457C2.00002 16.6251 2.01976 16.7031 2.05722 16.772C2.09469 16.8408 2.14857 16.898 2.21349 16.9378C2.27841 16.9777 2.35207 16.9988 2.42712 16.9991C2.50217 16.9994 2.57597 16.9788 2.64114 16.9394L7.14971 14.2136C7.40868 14.057 7.70176 13.9747 8 13.9747C8.29824 13.9747 8.59132 14.057 8.85028 14.2136L13.3589 16.9403C13.4241 16.9797 13.498 17.0003 13.5731 17C13.6482 16.9997 13.7219 16.9785 13.7869 16.9385C13.8518 16.8986 13.9057 16.8412 13.9431 16.7723C13.9805 16.7033 14.0001 16.6252 14 16.5457V2.81418C14 2.33303 13.8194 1.87158 13.4979 1.53136C13.1764 1.19114 12.7404 1 12.2857 1Z"
        stroke="#FF7145" stroke-width="2" stroke-linecap="round" stroke-linejoin="round" />
</svg>