<svg width="12" height="14" viewBox="0 0 12 14" fill="none" xmlns="http://www.w3.org/2000/svg">
<path id="Vector" d="M9.56566 1H2.76249C2.40163 1 2.05554 1.14335 1.80038 1.39852C1.54521 1.65369 1.40186 1.99977 1.40186 2.36063V12.6593C1.40187 12.7188 1.41754 12.7774 1.44727 12.829C1.47701 12.8806 1.51978 12.9235 1.5713 12.9534C1.62283 12.9833 1.6813 12.9991 1.74086 12.9993C1.80043 12.9995 1.85901 12.9841 1.91073 12.9545L5.4892 10.9102C5.69474 10.7928 5.92736 10.731 6.16407 10.731C6.40079 10.731 6.6334 10.7928 6.83895 10.9102L10.4174 12.9552C10.4692 12.9848 10.5278 13.0002 10.5875 13C10.6471 12.9998 10.7056 12.9839 10.7571 12.9539C10.8087 12.9239 10.8514 12.8809 10.8811 12.8292C10.9108 12.7775 10.9264 12.7189 10.9263 12.6593V2.36063C10.9263 1.99977 10.7829 1.65369 10.5278 1.39852C10.2726 1.14335 9.92652 1 9.56566 1Z" stroke="white" stroke-width="1.75" stroke-linecap="round" stroke-linejoin="round"/>
</svg>
