<svg width="40" height="40" viewBox="0 0 40 40" fill="none" xmlns="http://www.w3.org/2000/svg">
<path d="M33.56 5.30073C32.3193 4.15747 30.9355 3.16731 29.4363 2.36405C26.6249 0.856944 23.4139 0 20 0C8.95516 0 0 8.95516 0 20C0 31.0448 8.95516 40 20 40C31.0448 40 40 31.0448 40 20C40 14.1863 37.5186 8.95516 33.558 5.30073H33.56Z" fill="#FF7145"/>
<path d="M32.694 20.0663V4.55181C31.684 3.72072 30.5944 2.98506 29.4333 2.36273C29.2364 2.25735 29.0336 2.16191 28.8328 2.0625V20.112C28.8328 25.2159 24.9139 29.2143 19.9115 29.2143C16.8058 29.2143 14.0441 27.7072 12.4276 25.1582L16.1815 24.349L7.25413 18.1476L7.19448 18.76C7.15273 19.1934 7.13086 19.6328 7.13086 20.0663C7.13086 27.2598 12.7457 32.8946 19.9134 32.8946C27.0812 32.8946 32.696 27.2598 32.696 20.0663H32.694Z" fill="white"/>
</svg>
