<svg width="1194" height="416" viewBox="0 0 1194 416" fill="none" xmlns="http://www.w3.org/2000/svg">
<g clip-path="url(#clip0_2068_43130)">
<rect width="1920" height="416" fill="#FF7145"/>
<mask id="mask0_2068_43130" style="mask-type:alpha" maskUnits="userSpaceOnUse" x="0" y="0" width="916" height="416">
<rect width="916" height="416" fill="#E0FF22"/>
</mask>
<g mask="url(#mask0_2068_43130)">
<ellipse cx="343.061" cy="208.592" rx="267.795" ry="266.079" transform="rotate(90 343.061 208.592)" fill="url(#paint0_linear_2068_43130)"/>
<ellipse cx="625.597" cy="208.592" rx="267.795" ry="266.079" transform="rotate(90 625.597 208.592)" fill="url(#paint1_linear_2068_43130)"/>
<ellipse cx="89.2377" cy="208.592" rx="267.795" ry="266.079" transform="rotate(90 89.2377 208.592)" fill="url(#paint2_linear_2068_43130)"/>
<ellipse cx="-164.587" cy="208.592" rx="267.795" ry="266.079" transform="rotate(90 -164.587 208.592)" fill="url(#paint3_linear_2068_43130)"/>
</g>
<path d="M168.733 111.115C168.148 110.08 167.428 109.27 166.168 108.415C163.783 106.795 161.263 106.48 159.193 106.705C157.348 106.885 155.368 107.425 154.243 109.63C153.433 111.385 153.928 113.275 154.783 114.355C155.278 114.94 155.728 115.39 156.583 115.975C157.528 116.605 158.338 117.1 159.508 117.415L161.713 118.135C167.338 119.845 169.543 121.24 170.713 122.5C172.108 124.12 173.503 127.315 171.928 131.005C170.938 132.895 169.363 134.29 167.563 135.235C166.303 135.82 164.458 136.54 162.973 136.63C159.598 136.99 156.493 136.225 153.433 134.2C150.463 132.22 148.978 129.43 148.573 128.26L152.353 126.955C152.668 127.81 153.568 129.7 155.638 131.05C158.113 132.67 160.003 133.165 162.658 132.85C163.468 132.76 164.638 132.4 165.718 131.905C166.843 131.275 167.653 130.6 168.283 129.475C169.183 127.54 168.508 125.965 167.743 125.065C166.978 124.12 165.358 123.355 160.588 121.78L158.383 121.06C156.763 120.475 155.413 119.8 154.378 119.08C152.938 118.135 152.038 117.19 151.768 116.83C150.238 114.985 149.068 111.565 150.643 108.1C152.398 104.365 156.313 103.195 158.743 102.925C161.263 102.7 165.043 103.015 168.328 105.22C170.173 106.435 171.343 107.83 172.108 109.09L168.733 111.115ZM206.31 103.33V136.18H201.855L182.73 109.63V136.18H178.725V103.33H183.18L202.395 129.835V103.33H206.31ZM232.366 111.115C231.781 110.08 231.061 109.27 229.801 108.415C227.416 106.795 224.896 106.48 222.826 106.705C220.981 106.885 219.001 107.425 217.876 109.63C217.066 111.385 217.561 113.275 218.416 114.355C218.911 114.94 219.361 115.39 220.216 115.975C221.161 116.605 221.971 117.1 223.141 117.415L225.346 118.135C230.971 119.845 233.176 121.24 234.346 122.5C235.741 124.12 237.136 127.315 235.561 131.005C234.571 132.895 232.996 134.29 231.196 135.235C229.936 135.82 228.091 136.54 226.606 136.63C223.231 136.99 220.126 136.225 217.066 134.2C214.096 132.22 212.611 129.43 212.206 128.26L215.986 126.955C216.301 127.81 217.201 129.7 219.271 131.05C221.746 132.67 223.636 133.165 226.291 132.85C227.101 132.76 228.271 132.4 229.351 131.905C230.476 131.275 231.286 130.6 231.916 129.475C232.816 127.54 232.141 125.965 231.376 125.065C230.611 124.12 228.991 123.355 224.221 121.78L222.016 121.06C220.396 120.475 219.046 119.8 218.011 119.08C216.571 118.135 215.671 117.19 215.401 116.83C213.871 114.985 212.701 111.565 214.276 108.1C216.031 104.365 219.946 103.195 222.376 102.925C224.896 102.7 228.676 103.015 231.961 105.22C233.806 106.435 234.976 107.83 235.741 109.09L232.366 111.115ZM271.183 103.78C271.183 115.525 267.583 125.92 253.228 133.12L250.978 129.88C258.133 126.37 262.408 122.095 264.748 117.01L251.788 118.27L251.203 114.67L266.008 113.68C266.593 111.61 266.953 109.45 267.088 107.155H253.228V103.78H271.183ZM277.258 139.465V99.685H281.398V115.615H287.563V119.08H281.398V139.465H277.258ZM318.704 99.775H322.844V139.51H318.704V99.775ZM290.129 126.37L295.304 126.325V107.2H291.119V103.87H313.574V107.2H309.389V125.83C311.459 125.695 313.484 125.47 315.464 125.245L315.689 128.26C307.229 129.655 297.734 129.79 290.534 129.835L290.129 126.37ZM299.309 126.28C301.289 126.235 303.359 126.19 305.384 126.055V107.2H299.309V126.28ZM341.497 102.205H359.722V105.535H345.592V109.99H359.002V113.275H345.592V118C352.927 118 357.202 117.82 362.197 116.875L362.602 120.16C357.292 121.105 352.657 121.285 344.557 121.285H341.497V102.205ZM345.547 138.925V125.11H370.702V138.925H345.547ZM349.597 135.64H366.607V128.35H349.597V135.64ZM366.517 123.085V99.775H370.702V109.495H376.372V112.915H370.702V123.085H366.517ZM387.173 102.115H391.178V107.245C391.178 111.7 393.923 116.2 399.053 118.315L396.803 121.465C393.203 119.98 390.638 117.19 389.198 113.86C387.758 117.595 385.103 120.79 381.278 122.5L379.073 119.26C384.293 116.875 387.173 111.745 387.173 107.245V102.115ZM385.913 129.25V125.83H412.688V139.51H408.593V129.25H385.913ZM400.223 123.58V100.45H404.183V109.945H408.773V99.775H412.688V123.805H408.773V113.32H404.183V123.58H400.223ZM431.364 102.565C437.574 102.565 442.074 106.48 442.074 112.015C442.074 117.64 437.574 121.465 431.364 121.465C425.109 121.465 420.609 117.64 420.609 112.015C420.609 106.48 425.109 102.565 431.364 102.565ZM418.719 127.54C425.874 127.54 435.864 127.495 444.414 126.235L444.729 129.205C435.909 130.96 426.279 131.005 419.214 131.005L418.719 127.54ZM424.704 112.015C424.704 115.57 427.494 117.955 431.364 117.955C435.189 117.955 438.024 115.57 438.024 112.015C438.024 108.46 435.189 106.165 431.364 106.165C427.494 106.165 424.704 108.46 424.704 112.015ZM446.889 139.555V99.685H451.029V139.555H446.889ZM476.296 103.42H480.301V110.53C480.301 117.145 483.046 123.805 488.356 126.73L485.926 129.97C482.191 127.855 479.671 124.03 478.276 119.44C476.836 124.48 474.136 128.71 470.311 131.05L467.656 127.99C473.281 124.66 476.296 117.595 476.296 110.8V103.42ZM489.346 137.53V100.585H493.261V115.57H498.076V99.73H502.036V139.465H498.076V118.99H493.261V137.53H489.346ZM507.482 131.32H523.322V124.255H511.892V111.655H535.022V105.94H511.802V102.565H539.117V114.94H515.987V120.88H540.062V124.255H527.417V131.32H543.437V134.695H507.482V131.32ZM546.813 119.665H582.768V123.085H567.198V130.78H562.968V123.085H546.813V119.665ZM550.773 108.775C550.773 103.735 556.308 100.72 564.723 100.72C573.228 100.72 578.718 103.735 578.718 108.775C578.718 113.725 573.228 116.74 564.723 116.74C556.308 116.74 550.773 113.725 550.773 108.775ZM551.268 138.655V127H555.453V135.235H578.808V138.655H551.268ZM555.138 108.775C555.138 111.7 558.963 113.41 564.723 113.41C570.573 113.41 574.353 111.7 574.353 108.775C574.353 105.76 570.573 104.05 564.723 104.05C558.963 104.05 555.138 105.76 555.138 108.775ZM615.235 115.03H625.225V110.125H615.73C613.165 116.515 607.225 121.06 598.675 123.535L597.01 120.25C606.46 117.595 611.905 112.51 612.58 106.03H599.125V102.655H617.08C617.08 104.095 616.945 105.49 616.675 106.84H625.225V99.775H629.365V123.355H625.225V118.45H615.235V115.03ZM603.175 131.545C603.175 126.685 608.35 123.76 616.405 123.76C624.415 123.76 629.545 126.685 629.545 131.545C629.545 136.36 624.415 139.285 616.405 139.285C608.35 139.285 603.175 136.36 603.175 131.545ZM607.225 131.545C607.225 134.335 610.78 136 616.405 136C621.985 136 625.495 134.335 625.495 131.545C625.495 128.665 621.985 127.045 616.405 127.045C610.78 127.045 607.225 128.665 607.225 131.545ZM664.556 99.775H668.696V123.805H664.556V115.12H658.346V111.655H664.556V99.775ZM635.936 107.065V103.735H645.431V99.415H649.526V103.735H658.976V107.065H635.936ZM638.186 116.02C638.186 111.835 642.056 108.91 647.456 108.91C652.856 108.91 656.726 111.835 656.726 116.02C656.726 120.25 652.856 123.085 647.456 123.085C642.056 123.085 638.186 120.25 638.186 116.02ZM642.191 116.02C642.191 118.405 644.351 119.98 647.456 119.98C650.561 119.98 652.766 118.405 652.766 116.02C652.766 113.635 650.561 112.06 647.456 112.06C644.351 112.06 642.191 113.635 642.191 116.02ZM642.776 138.925V125.785H668.696V138.925H642.776ZM646.826 135.64H664.646V129.115H646.826V135.64ZM680.982 132.265L678.237 141.535H675.312L676.797 132.265H680.982ZM148.348 166.735H170.578V170.2H161.533V174.52C161.533 181.18 165.898 188.02 171.928 190.63L169.588 193.915C164.998 191.845 161.308 187.39 159.463 182.08C157.663 187.75 153.973 192.655 149.383 194.905L146.998 191.62C152.938 188.83 157.348 181.36 157.348 174.52V170.2H148.348V166.735ZM175.483 202.51V162.775H179.623V202.51H175.483ZM190.875 164.8H217.785V167.77C217.785 170.92 217.785 174.475 216.705 179.29H222.285V182.665H186.33V179.29H212.61C213.69 174.61 213.735 171.145 213.735 168.13H190.875V164.8ZM190.695 201.925V187.705H217.83V201.925H190.695ZM194.745 198.64H213.78V191.035H194.745V198.64ZM262.492 162.775H266.677V178.165H272.932V181.675H266.677V202.51H262.492V162.775ZM237.472 193.015V166.015H241.567V176.365H252.097V166.015H256.192V193.015H237.472ZM241.567 189.64H252.097V179.605H241.567V189.64ZM275.363 194.32H291.203V187.255H279.773V174.655H302.903V168.94H279.683V165.565H306.998V177.94H283.868V183.88H307.943V187.255H295.298V194.32H311.318V197.695H275.363V194.32ZM326.865 167.185H340.905V162.55H345V167.185H358.95V170.47H326.865V167.185ZM325.065 191.845V188.515H361.02V191.845H345V202.51H340.905V191.845H325.065ZM329.925 179.29C329.925 175.015 334.785 172.63 342.975 172.63C351.165 172.63 356.07 175.015 356.07 179.29C356.07 183.565 351.165 185.95 342.975 185.95C334.785 185.95 329.925 183.565 329.925 179.29ZM334.2 179.29C334.2 181.54 337.35 182.8 342.975 182.8C348.69 182.8 351.75 181.54 351.75 179.29C351.75 176.995 348.69 175.78 342.975 175.78C337.35 175.78 334.2 176.995 334.2 179.29ZM385.456 165.34C385.456 175.825 379.876 183.16 367.006 186.94L365.431 183.61C371.866 181.81 376.051 179.11 378.481 175.78L365.881 176.77L365.251 173.395L380.146 172.765C380.641 171.46 380.956 170.11 381.046 168.715H367.186V165.34H385.456ZM370.561 194.77C370.561 190 375.646 187.12 383.926 187.12C392.161 187.12 397.336 190 397.336 194.77C397.336 199.63 392.161 202.465 383.926 202.465C375.646 202.465 370.561 199.63 370.561 194.77ZM374.611 194.77C374.611 197.56 378.121 199.18 383.926 199.18C389.686 199.18 393.196 197.56 393.196 194.77C393.196 191.98 389.686 190.405 383.926 190.405C378.121 190.405 374.611 191.98 374.611 194.77ZM392.881 186.49V162.775H397.066V186.49H392.881ZM433.607 162.73H437.612V202.465H433.607V162.73ZM404.222 179.875C404.222 171.28 407.552 165.925 412.682 165.925C417.452 165.925 420.692 170.515 421.142 177.985H425.732V163.585H429.602V200.53H425.732V181.405H421.142C420.782 189.145 417.542 193.915 412.682 193.915C407.552 193.915 404.222 188.515 404.222 179.875ZM408.002 179.875C408.002 186.265 409.802 190 412.682 190C415.607 190 417.407 186.265 417.407 179.875C417.407 173.575 415.607 169.84 412.682 169.84C409.802 169.84 408.002 173.575 408.002 179.875ZM462.993 176.005H471.813V162.685H475.953V202.555H471.813V179.335H462.993V176.005ZM442.923 190.855C448.998 187.885 453.093 180.28 453.093 172.855V166.06H457.233V172.855C457.233 180.145 461.328 187.435 467.268 190.18L464.838 193.465C460.338 191.215 456.963 186.715 455.253 181.27C453.498 186.985 450.033 191.8 445.533 194.185L442.923 190.855Z" fill="white"/>
</g>
<defs>
<linearGradient id="paint0_linear_2068_43130" x1="345.557" y1="-10.6625" x2="370.2" y2="507.692" gradientUnits="userSpaceOnUse">
<stop stop-color="#FF7145"/>
<stop offset="1" stop-color="#FFB69F"/>
</linearGradient>
<linearGradient id="paint1_linear_2068_43130" x1="628.093" y1="-10.6625" x2="652.736" y2="507.692" gradientUnits="userSpaceOnUse">
<stop stop-color="#FF7145"/>
<stop offset="1" stop-color="#FFB69F"/>
</linearGradient>
<linearGradient id="paint2_linear_2068_43130" x1="91.7337" y1="-10.6625" x2="116.377" y2="507.692" gradientUnits="userSpaceOnUse">
<stop stop-color="#FF7145"/>
<stop offset="1" stop-color="#FFB69F"/>
</linearGradient>
<linearGradient id="paint3_linear_2068_43130" x1="-162.092" y1="-10.6625" x2="-137.448" y2="507.692" gradientUnits="userSpaceOnUse">
<stop stop-color="#FF7145"/>
<stop offset="1" stop-color="#FFB69F"/>
</linearGradient>
<clipPath id="clip0_2068_43130">
<rect width="1194" height="416" rx="30" fill="white"/>
</clipPath>
</defs>
</svg>
