<svg width="715" height="317" viewBox="0 0 715 317" fill="none" xmlns="http://www.w3.org/2000/svg">
<g filter="url(#filter0_d_2806_36147)">
<rect x="23" y="40.1191" width="668.64" height="228.8" rx="11.2" fill="white" shape-rendering="crispEdges"/>
<path d="M50.2226 77.4152H58.3471V78.2921H54.7888V81.2859H53.7103V78.2921H50.2226V77.4152ZM51.2004 76.3467V72.7884H57.3391V76.3467H51.2004ZM52.2688 75.4899H56.2706V73.6452H52.2688V75.4899ZM60.0105 73.1009H66.1795V73.988H61.0891V76.5281H66.2601V77.4051H60.0105V73.1009ZM59.0328 80.1569V79.2699H67.1572V80.1569H59.0328ZM74.9944 73.2118C74.9944 75.9133 74.1779 78.272 70.8616 79.9049L70.287 79.0582C71.8292 78.3022 72.7868 77.395 73.3312 76.3165L70.5088 76.5785L70.3475 75.6411L73.6739 75.4395C73.7948 75.0161 73.8755 74.5625 73.9057 74.0888H70.8112V73.2118H74.9944ZM76.5064 81.296V72.3147H77.595V81.296H76.5064ZM85.3871 72.3248H86.4858V81.296H85.3871V79.2195H83.5021V78.3929H85.3871V72.3248ZM78.956 76.9414C80.6293 76.9414 82.857 76.9414 84.7823 76.6793L84.8327 77.4757C84.0162 77.6168 83.1796 77.7075 82.353 77.7579V81.0238H81.2644V77.8083C80.4882 77.8385 79.7524 77.8385 79.0871 77.8385L78.956 76.9414ZM79.6012 74.5323C79.6012 73.4638 80.5386 72.738 81.8692 72.738C83.1796 72.738 84.1271 73.4638 84.1271 74.5323C84.1271 75.6209 83.1796 76.3366 81.8692 76.3366C80.5386 76.3366 79.6012 75.6209 79.6012 74.5323ZM80.6192 74.5323C80.6192 75.1371 81.1333 75.5101 81.8692 75.5101C82.5848 75.5101 83.0989 75.1371 83.0989 74.5323C83.0989 73.9376 82.5848 73.5646 81.8692 73.5646C81.1333 73.5646 80.6192 73.9376 80.6192 74.5323ZM88.7641 73.1009H94.9331V73.988H89.8427V76.5281H95.0137V77.4051H88.7641V73.1009ZM87.7864 80.1569V79.2699H95.9109V80.1569H87.7864Z" fill="#000235"/>
<rect x="49.8799" y="96.9395" width="8.96" height="8.96" rx="2.24" fill="#000235"/>
<path d="M52.1201 101.419L53.6135 103.099L56.6001 99.7393" stroke="white" stroke-width="0.56" stroke-linecap="round"/>
<path d="M65.4883 98.2358H71.1779V98.6927H69.9324V100.933H71.1599V101.39H65.5151V100.933H66.7427V98.6927H65.4883V98.2358ZM64.8163 102.85V102.393H71.8678V102.85H69.9683V105.556H69.4127V102.85H67.2892V105.556H66.7247V102.85H64.8163ZM67.2982 100.933H69.3769V98.6927H67.2982V100.933ZM74.7173 98.3791C75.7746 98.3791 76.5451 99.311 76.6258 100.798H78.4715V97.7519H79.0181V105.565H78.4715V101.255H76.6347C76.572 102.787 75.7925 103.764 74.7173 103.764C73.5973 103.764 72.8088 102.707 72.8088 101.067C72.8088 99.4274 73.5973 98.3791 74.7173 98.3791ZM73.3285 101.067C73.3285 102.384 73.9019 103.28 74.7173 103.28C75.5326 103.28 76.0971 102.384 76.0971 101.067C76.0971 99.7679 75.5326 98.8809 74.7173 98.8809C73.9019 98.8809 73.3285 99.7679 73.3285 101.067ZM85.9354 97.7698H86.4909V100.404H87.6826V100.87H86.4909V103.612H85.9354V97.7698ZM80.5146 99.2303V98.7734H82.5306V97.7698H83.0951V98.7734H85.12V99.2303H80.5146ZM80.9536 101.148C80.9536 100.279 81.7152 99.7142 82.8173 99.7142C83.9015 99.7142 84.6541 100.279 84.6541 101.148C84.6541 102.026 83.9015 102.581 82.8173 102.581C81.7152 102.581 80.9536 102.026 80.9536 101.148ZM81.4912 101.148C81.4912 101.739 82.0199 102.133 82.8173 102.133C83.5968 102.133 84.1255 101.739 84.1255 101.148C84.1255 100.565 83.5968 100.153 82.8173 100.153C82.0199 100.153 81.4912 100.565 81.4912 101.148ZM81.7063 105.368V103.146H82.2618V104.902H86.8672V105.368H81.7063Z" fill="#000235"/>
<rect x="50.1599" y="115.819" width="9.52" height="8.4" rx="1.96" stroke="#000235" stroke-width="0.56"/>
<path d="M66.0977 117.176H70.2641V117.651H68.4721V118.842C68.4721 120.106 69.4577 121.486 70.5239 122.014L70.1924 122.453C69.3412 122.014 68.5527 121.047 68.2033 119.971C67.8538 121.136 67.0205 122.184 66.1693 122.65L65.8289 122.202C66.8772 121.674 67.9345 120.186 67.9345 118.842V117.651H66.0977V117.176ZM71.3213 124.165V116.36H71.8769V119.568H73.2119V120.052H71.8769V124.165H71.3213ZM79.5827 116.369H80.1472V122.149H79.5827V119.953H77.5308C77.1724 120.437 76.59 120.733 75.9001 120.733C74.7532 120.733 73.911 119.936 73.911 118.798C73.911 117.669 74.7532 116.88 75.9001 116.88C76.5811 116.88 77.1635 117.167 77.5129 117.633H79.5827V116.369ZM74.4396 118.798C74.4396 119.622 75.0489 120.24 75.9001 120.24C76.7155 120.24 77.3427 119.622 77.3427 118.798C77.3427 117.982 76.7155 117.373 75.9001 117.373C75.0489 117.373 74.4396 117.982 74.4396 118.798ZM75.2371 123.968V121.539H75.7926V123.502H80.3712V123.968H75.2371ZM77.7728 118.108C77.8444 118.314 77.8892 118.547 77.8892 118.798C77.8892 119.048 77.8444 119.272 77.7728 119.488H79.5827V118.108H77.7728ZM84.1525 116.943C85.3621 116.943 86.2133 117.678 86.2133 118.744C86.2133 119.828 85.3621 120.545 84.1525 120.545C82.9339 120.545 82.0827 119.828 82.0827 118.744C82.0827 117.678 82.9339 116.943 84.1525 116.943ZM81.6616 121.916C83.1042 121.916 85.0843 121.916 86.8046 121.656L86.8584 122.068C85.0843 122.4 83.149 122.408 81.7422 122.408L81.6616 121.916ZM82.6293 118.744C82.6293 119.514 83.2654 120.07 84.1525 120.07C85.0395 120.07 85.6667 119.514 85.6667 118.744C85.6667 117.973 85.0395 117.436 84.1525 117.436C83.2654 117.436 82.6293 117.973 82.6293 118.744ZM87.3422 124.165V116.352H87.8978V124.165H87.3422Z" fill="#000235"/>
<rect x="49.8799" y="134.14" width="8.96" height="8.96" rx="2.24" fill="#000235"/>
<path d="M52.1201 138.619L53.6135 140.299L56.6001 136.939" stroke="white" stroke-width="0.56" stroke-linecap="round"/>
<path d="M64.8252 138.886H68.0687V137.855H65.7302V135.284H70.9628V135.732H66.2767V137.398H71.0345V137.855H68.6153V138.886H71.8588V139.343H64.8252V138.886ZM65.6137 140.651V140.185H70.9897V142.819H70.4252V140.651H65.6137ZM72.6565 139.101H79.6811V139.567H72.6565V139.101ZM73.445 140.866V140.4H78.7582V142.756H78.2027V140.866H73.445ZM73.5973 138.267V135.185H78.803V135.633H74.1528V136.475H78.579V136.923H74.1528V137.828H78.8299V138.267H73.5973ZM85.9354 134.97H86.4909V137.604H87.6826V138.07H86.4909V140.812H85.9354V134.97ZM80.5146 136.431V135.974H82.5306V134.97H83.0951V135.974H85.12V136.431H80.5146ZM80.9536 138.348C80.9536 137.479 81.7152 136.914 82.8173 136.914C83.9015 136.914 84.6541 137.479 84.6541 138.348C84.6541 139.226 83.9015 139.782 82.8173 139.782C81.7152 139.782 80.9536 139.226 80.9536 138.348ZM81.4912 138.348C81.4912 138.939 82.0199 139.334 82.8173 139.334C83.5968 139.334 84.1255 138.939 84.1255 138.348C84.1255 137.766 83.5968 137.353 82.8173 137.353C82.0199 137.353 81.4912 137.766 81.4912 138.348ZM81.7063 142.568V140.346H82.2618V142.102H86.8672V142.568H81.7063Z" fill="#000235"/>
<rect x="50.1599" y="153.019" width="9.52" height="8.4" rx="1.96" stroke="#000235" stroke-width="0.56"/>
<path d="M71.393 153.561H71.9485V155.541H73.1402V155.998H71.9485V158.014H71.393V153.561ZM65.9722 157.602C67.9165 157.055 69.1351 155.962 69.2605 154.546H66.2948V154.08H69.8519C69.8519 156.007 68.4541 157.422 66.1873 158.059L65.9722 157.602ZM67.1012 161.23V158.39H71.9485V161.23H67.1012ZM67.6567 160.782H71.402V158.856H67.6567V160.782ZM79.2243 153.552H79.7798V155.595H80.9804V156.069H79.7798V158.148H79.2243V153.552ZM73.7945 157.593C75.7388 157.055 76.9664 155.962 77.0918 154.546H74.126V154.08H77.6742C77.6742 156.007 76.2764 157.413 74.0185 158.041L73.7945 157.593ZM74.7712 158.981V158.516H79.7798V161.365H79.2243V158.981H74.7712ZM85.7563 155.657H87.4229V153.561H87.9784V158.229H87.4229V156.132H85.7563V155.657ZM81.6616 157.637C82.7726 157.243 83.6686 156.186 83.6686 155.048V154.609H81.8587V154.134H86.0072V154.609H84.2242V155.039C84.2242 156.078 85.0754 157.055 86.1685 157.458L85.8818 157.897C85.0037 157.566 84.2958 156.894 83.9643 156.061C83.6418 156.992 82.8802 157.727 81.9573 158.085L81.6616 157.637ZM82.8264 159.143V158.677H87.9784V161.365H87.4229V159.143H82.8264ZM95.2273 153.57H95.7828V159.295H95.2273V153.57ZM89.6362 156.025C89.6362 154.914 90.4964 154.125 91.6343 154.125C92.7901 154.125 93.6324 154.914 93.6324 156.025C93.6324 157.136 92.7901 157.915 91.6343 157.915C90.4964 157.915 89.6362 157.136 89.6362 156.025ZM90.1828 156.025C90.1828 156.831 90.81 157.431 91.6343 157.431C92.4676 157.431 93.0948 156.831 93.0948 156.025C93.0948 155.209 92.4676 154.609 91.6343 154.609C90.81 154.609 90.1828 155.209 90.1828 156.025ZM90.8548 161.168V158.713H91.4103V160.702H96.0426V161.168H90.8548Z" fill="#000235"/>
<rect x="50.1599" y="171.62" width="9.52" height="8.4" rx="1.96" stroke="#000235" stroke-width="0.56"/>
<path d="M71.3213 172.161H71.8679V175.521H73.1761V175.996H71.8679V179.965H71.3213V172.161ZM65.8468 177.923C66.5009 177.923 67.2625 177.923 68.0509 177.896V176.973C67.1281 176.883 66.5188 176.346 66.5188 175.539C66.5188 174.67 67.2445 174.106 68.3197 174.106C69.4039 174.106 70.1297 174.67 70.1297 175.539C70.1297 176.337 69.5293 176.883 68.5975 176.973V177.869C69.3501 177.833 70.1117 177.77 70.8106 177.672L70.8644 178.084C69.1709 178.371 67.3162 178.397 65.9453 178.397L65.8468 177.923ZM65.9812 173.595V173.138H68.0509V172.161H68.5975V173.138H70.6673V173.595H65.9812ZM67.0385 175.539C67.0385 176.131 67.5492 176.534 68.3197 176.534C69.0903 176.534 69.61 176.131 69.61 175.539C69.61 174.957 69.0903 174.545 68.3197 174.545C67.5492 174.545 67.0385 174.957 67.0385 175.539ZM79.5827 172.152H80.1382V179.965H79.5827V176.588H77.8892V176.113H79.5827V174.446H77.9609V173.989H79.5827V172.152ZM74.0544 173.353V172.887H77.4323V175.584H74.6278V177.645H74.6457C75.8732 177.645 76.8678 177.6 78.0864 177.403L78.1401 177.878C76.8857 178.075 75.9001 178.111 74.6457 178.111H74.0723V175.118H76.8768V173.353H74.0544ZM87.0555 172.17H87.611V174.804H88.8027V175.27H87.611V178.012H87.0555V172.17ZM81.6347 173.631V173.174H83.6507V172.17H84.2152V173.174H86.2402V173.631H81.6347ZM82.0738 175.548C82.0738 174.679 82.8354 174.115 83.9374 174.115C85.0216 174.115 85.7742 174.679 85.7742 175.548C85.7742 176.426 85.0216 176.982 83.9374 176.982C82.8354 176.982 82.0738 176.426 82.0738 175.548ZM82.6114 175.548C82.6114 176.14 83.14 176.534 83.9374 176.534C84.717 176.534 85.2456 176.14 85.2456 175.548C85.2456 174.966 84.717 174.554 83.9374 174.554C83.14 174.554 82.6114 174.966 82.6114 175.548ZM82.8264 179.768V177.546H83.3819V179.302H87.9874V179.768H82.8264Z" fill="#000235"/>
<rect x="50.1599" y="190.219" width="9.52" height="8.4" rx="1.96" stroke="#000235" stroke-width="0.56"/>
<path d="M71.7425 190.77H72.298V195.205H71.7425V190.77ZM66.0529 194.542C67.1639 194.112 68.0599 193.046 68.0599 191.836V191.074H68.6065V191.836C68.6065 192.992 69.5204 193.995 70.6404 194.399L70.3537 194.82C69.4487 194.497 68.6871 193.798 68.3466 192.893C68.0151 193.852 67.2535 194.614 66.3217 194.981L66.0529 194.542ZM67.3252 198.44V195.68H72.298V198.44H67.3252ZM67.8717 197.983H71.7604V196.137H67.8717V197.983ZM74.4307 191.012H80.1203V191.451H78.8748V193.126H80.1024V193.565H74.4576V193.126H75.694V191.451H74.4307V191.012ZM73.7766 194.775V194.3H80.8102V194.775H73.7766ZM74.6368 195.976V195.546H79.8873V197.176H75.2102V198.01H80.1382V198.449H74.6636V196.746H79.3497V195.976H74.6368ZM76.2496 193.126H78.3193V191.451H76.2496V193.126ZM87.0555 190.77H87.611V193.404H88.8027V193.87H87.611V196.612H87.0555V190.77ZM81.6347 192.23V191.773H83.6507V190.77H84.2152V191.773H86.2402V192.23H81.6347ZM82.0738 194.148C82.0738 193.279 82.8354 192.714 83.9374 192.714C85.0216 192.714 85.7742 193.279 85.7742 194.148C85.7742 195.026 85.0216 195.581 83.9374 195.581C82.8354 195.581 82.0738 195.026 82.0738 194.148ZM82.6114 194.148C82.6114 194.739 83.14 195.133 83.9374 195.133C84.717 195.133 85.2456 194.739 85.2456 194.148C85.2456 193.565 84.717 193.153 83.9374 193.153C83.14 193.153 82.6114 193.565 82.6114 194.148ZM82.8264 198.368V196.146H83.3819V197.902H87.9874V198.368H82.8264Z" fill="#000235"/>
<rect x="133.04" y="97.2195" width="9.52" height="8.4" rx="1.96" stroke="#000235" stroke-width="0.56"/>
<path d="M154.604 97.7519H155.16V105.565H154.604V97.7519ZM149.291 103.657V98.4329H149.847V100.565H152.347V98.4329H152.893V103.657H149.291ZM149.847 103.191H152.347V101.004H149.847V103.191ZM162.436 97.7519H162.991V105.565H162.436V97.7519ZM157.122 103.657V98.4329H157.678V100.565H160.178V98.4329H160.724V103.657H157.122ZM157.678 103.191H160.178V101.004H157.678V103.191ZM165.402 98.5135H170.625V98.9705H165.957V101.551H170.706V102.017H165.402V98.5135ZM164.488 104.445V103.988H171.539V104.445H164.488ZM177.767 97.7698H178.322V100.404H179.514V100.87H178.322V103.612H177.767V97.7698ZM172.346 99.2303V98.7734H174.362V97.7698H174.926V98.7734H176.951V99.2303H172.346ZM172.785 101.148C172.785 100.279 173.546 99.7142 174.649 99.7142C175.733 99.7142 176.485 100.279 176.485 101.148C176.485 102.026 175.733 102.581 174.649 102.581C173.546 102.581 172.785 102.026 172.785 101.148ZM173.322 101.148C173.322 101.739 173.851 102.133 174.649 102.133C175.428 102.133 175.957 101.739 175.957 101.148C175.957 100.565 175.428 100.153 174.649 100.153C173.851 100.153 173.322 100.565 173.322 101.148ZM173.538 105.368V103.146H174.093V104.902H178.699V105.368H173.538Z" fill="#000235"/>
<rect x="133.04" y="115.819" width="9.52" height="8.4" rx="1.96" stroke="#000235" stroke-width="0.56"/>
<path d="M152.06 116.656H152.624V117.113C152.624 118.269 154.21 119.201 155.474 119.407L155.241 119.855C154.112 119.649 152.83 118.968 152.347 117.964C151.872 118.977 150.59 119.649 149.443 119.855L149.219 119.407C150.501 119.201 152.06 118.296 152.06 117.113V116.656ZM148.825 121.271V120.796H155.859V121.271H152.597V124.156H152.051V121.271H148.825ZM157.302 116.647H163.054V117.104H160.518C160.518 118.081 161.997 118.771 163.26 118.923L163.063 119.371C161.871 119.21 160.599 118.645 160.178 117.758C159.748 118.654 158.475 119.21 157.284 119.371L157.078 118.923C158.35 118.771 159.837 118.081 159.837 117.104H157.302V116.647ZM156.656 120.384V119.927H163.69V120.384H160.438V121.566H159.891V120.384H156.656ZM157.57 124.039V121.064H158.126V122.041H162.212V121.064H162.767V124.039H157.57ZM158.126 123.582H162.212V122.489H158.126V123.582ZM164.488 120.509H171.521V120.966H164.488V120.509ZM165.294 118.17C165.294 117.203 166.333 116.647 168 116.647C169.658 116.647 170.706 117.203 170.706 118.17C170.706 119.138 169.658 119.703 168 119.703C166.333 119.703 165.294 119.138 165.294 118.17ZM165.411 123.968V121.719H165.966V123.502H170.733V123.968H165.411ZM165.859 118.17C165.859 118.824 166.719 119.246 168 119.246C169.299 119.246 170.133 118.824 170.133 118.17C170.133 117.507 169.299 117.095 168 117.095C166.719 117.095 165.859 117.507 165.859 118.17Z" fill="#000235"/>
<rect x="133.04" y="134.42" width="9.52" height="8.4" rx="1.96" stroke="#000235" stroke-width="0.56"/>
<path d="M152.947 135.794C152.947 137.999 152.096 140.077 149.327 141.43L149.022 140.991C150.519 140.265 151.442 139.307 151.934 138.205L149.148 138.473L149.031 137.963L152.114 137.739C152.275 137.264 152.355 136.771 152.391 136.26H149.435V135.794H152.947ZM154.622 142.756V134.952H155.178V142.756H154.622ZM162.445 134.952H163V142.756H162.445V134.952ZM156.845 140.794C157.947 140.274 158.914 138.948 158.914 137.515V136.798H157.042V136.35H158.914V135.095H159.479V136.35H161.316V136.798H159.47V137.515C159.47 138.886 160.456 140.149 161.567 140.651L161.235 141.09C160.357 140.669 159.551 139.782 159.201 138.688C158.861 139.835 158.063 140.767 157.176 141.224L156.845 140.794ZM169.935 134.97H170.491V137.604H171.683V138.07H170.491V140.812H169.935V134.97ZM164.515 136.431V135.974H166.531V134.97H167.095V135.974H169.12V136.431H164.515ZM164.954 138.348C164.954 137.479 165.715 136.914 166.817 136.914C167.901 136.914 168.654 137.479 168.654 138.348C168.654 139.226 167.901 139.782 166.817 139.782C165.715 139.782 164.954 139.226 164.954 138.348ZM165.491 138.348C165.491 138.939 166.02 139.334 166.817 139.334C167.597 139.334 168.125 138.939 168.125 138.348C168.125 137.766 167.597 137.353 166.817 137.353C166.02 137.353 165.491 137.766 165.491 138.348ZM165.706 142.568V140.346H166.262V142.102H170.867V142.568H165.706Z" fill="#000235"/>
<rect x="133.04" y="153.019" width="9.52" height="8.4" rx="1.96" stroke="#000235" stroke-width="0.56"/>
<path d="M154.864 153.552H155.402V161.356H154.864V157.279H153.61V160.944H153.081V153.749H153.61V156.795H154.864V153.552ZM149.228 159.286V154.537H149.793V158.793C150.599 158.793 151.468 158.74 152.472 158.533L152.544 159.035C151.459 159.241 150.572 159.286 149.712 159.286H149.228ZM156.656 158.292H163.69V158.757H160.447V161.374H159.9V158.757H156.656V158.292ZM157.122 157.172C158.386 156.983 159.891 156.15 159.891 155.075V155.003H157.355V154.546H159.9V153.561H160.447V154.546H162.991V155.003H160.447V155.075C160.447 156.141 161.952 156.983 163.215 157.172L163.009 157.62C161.862 157.431 160.653 156.813 160.178 155.908C159.694 156.822 158.475 157.431 157.328 157.62L157.122 157.172ZM165.393 156.885C166.71 156.885 167.695 156.858 168.905 156.652L168.95 157.118C167.704 157.297 166.71 157.342 165.393 157.342H164.819V155.389H167.677V154.385H164.801V153.937H168.224V155.81H165.375V156.885H165.393ZM165.859 158.525V158.077H170.849V159.851H166.414V160.791H171.172V161.248H165.868V159.412H170.303V158.525H165.859ZM168.744 155.675V155.209H170.294V153.57H170.849V157.664H170.294V155.675H168.744ZM177.767 153.57H178.322V156.204H179.514V156.67H178.322V159.412H177.767V153.57ZM172.346 155.03V154.573H174.362V153.57H174.926V154.573H176.951V155.03H172.346ZM172.785 156.948C172.785 156.078 173.546 155.514 174.649 155.514C175.733 155.514 176.485 156.078 176.485 156.948C176.485 157.826 175.733 158.381 174.649 158.381C173.546 158.381 172.785 157.826 172.785 156.948ZM173.322 156.948C173.322 157.539 173.851 157.933 174.649 157.933C175.428 157.933 175.957 157.539 175.957 156.948C175.957 156.365 175.428 155.953 174.649 155.953C173.851 155.953 173.322 156.365 173.322 156.948ZM173.538 161.168V158.946H174.093V160.702H178.699V161.168H173.538Z" fill="#000235"/>
<rect x="133.04" y="171.62" width="9.52" height="8.4" rx="1.96" stroke="#000235" stroke-width="0.56"/>
<path d="M149.058 173.129H150.85V172.134H151.406V173.129H153.189V173.595H151.406V173.81C151.406 174.84 152.302 175.692 153.422 176.032L153.162 176.471C152.239 176.184 151.486 175.575 151.146 174.769C150.814 175.638 150.053 176.301 149.13 176.623L148.861 176.175C149.972 175.826 150.85 174.903 150.85 173.81V173.595H149.058V173.129ZM150.205 179.84V177.224H155.196V179.84H150.205ZM150.743 179.383H154.658V177.672H150.743V179.383ZM152.956 174.858V174.392H154.64V172.17H155.196V176.794H154.64V174.858H152.956ZM162.095 172.161H162.66V174.554H163.86V175.02H162.66V177.806H162.095V172.161ZM157.024 176.39V172.851H160.447V173.326H157.579V175.916H157.615C159.183 175.916 160.115 175.871 161.199 175.656L161.262 176.104C160.142 176.328 159.21 176.39 157.615 176.39H157.024ZM157.866 179.768V177.251H158.422V179.302H163.027V179.768H157.866ZM167.032 172.744C168.242 172.744 169.093 173.478 169.093 174.545C169.093 175.629 168.242 176.346 167.032 176.346C165.814 176.346 164.963 175.629 164.963 174.545C164.963 173.478 165.814 172.744 167.032 172.744ZM164.541 177.716C165.984 177.716 167.964 177.716 169.685 177.457L169.738 177.869C167.964 178.2 166.029 178.209 164.622 178.209L164.541 177.716ZM165.509 174.545C165.509 175.315 166.145 175.871 167.032 175.871C167.919 175.871 168.547 175.315 168.547 174.545C168.547 173.774 167.919 173.236 167.032 173.236C166.145 173.236 165.509 173.774 165.509 174.545ZM170.222 179.965V172.152H170.778V179.965H170.222Z" fill="#000235"/>
<rect x="132.76" y="189.939" width="8.96" height="8.96" rx="2.24" fill="#000235"/>
<path d="M135 194.419L136.493 196.099L139.48 192.739" stroke="white" stroke-width="0.56" stroke-linecap="round"/>
<path d="M151.818 192.974H153.511V190.77H154.076V196.486H153.511V193.431H151.818V192.974ZM147.759 194.999C148.861 194.596 149.757 193.565 149.757 192.392V191.908H147.947V191.442H152.104V191.908H150.321V192.392C150.321 193.44 151.164 194.426 152.257 194.811L151.97 195.25C151.101 194.918 150.384 194.237 150.053 193.404C149.73 194.345 148.977 195.089 148.055 195.447L147.759 194.999ZM149.166 198.368V195.976H149.721V197.902H154.3V198.368H149.166ZM155.536 194.927H158.771V194.058H156.477V191.003H161.683V191.451H157.033V192.275H161.459V192.723H157.033V193.61H161.71V194.058H159.317V194.927H162.561V195.393H155.536V194.927ZM156.397 197.293C156.397 196.486 157.355 196.065 159.049 196.065C160.742 196.065 161.701 196.486 161.701 197.293C161.701 198.099 160.742 198.529 159.049 198.529C157.355 198.529 156.397 198.099 156.397 197.293ZM156.952 197.293C156.952 197.821 157.732 198.099 159.049 198.099C160.357 198.099 161.145 197.821 161.145 197.293C161.145 196.782 160.357 196.495 159.049 196.495C157.732 196.495 156.952 196.782 156.952 197.293ZM167.516 192.858H169.183V190.761H169.738V195.429H169.183V193.332H167.516V192.858ZM163.421 194.838C164.532 194.443 165.428 193.386 165.428 192.248V191.809H163.618V191.334H167.767V191.809H165.984V192.239C165.984 193.279 166.835 194.255 167.928 194.658L167.642 195.098C166.763 194.766 166.056 194.094 165.724 193.261C165.402 194.193 164.64 194.927 163.717 195.286L163.421 194.838ZM164.586 196.343V195.877H169.738V198.565H169.183V196.343H164.586ZM176.987 190.77H177.543V196.495H176.987V190.77ZM171.396 193.225C171.396 192.114 172.256 191.325 173.394 191.325C174.55 191.325 175.392 192.114 175.392 193.225C175.392 194.336 174.55 195.115 173.394 195.115C172.256 195.115 171.396 194.336 171.396 193.225ZM171.943 193.225C171.943 194.031 172.57 194.632 173.394 194.632C174.227 194.632 174.855 194.031 174.855 193.225C174.855 192.41 174.227 191.809 173.394 191.809C172.57 191.809 171.943 192.41 171.943 193.225ZM172.615 198.368V195.913H173.17V197.902H177.802V198.368H172.615Z" fill="#000235"/>
<rect x="215.92" y="97.2195" width="9.52" height="8.4" rx="1.96" stroke="#000235" stroke-width="0.56"/>
<path d="M232.458 98.5942H237.834V99.3647C237.834 100.332 237.834 101.39 237.556 102.94L237.001 102.859C237.279 101.39 237.279 100.314 237.279 99.3647V99.0601H232.458V98.5942ZM231.706 104.4V103.934H234.537V101.112H235.084V103.934H238.739V104.4H231.706ZM240.478 102.232H241.024V103.334H245.101V102.232H245.657V105.44H240.478V102.232ZM239.537 101.47V100.986H244.886C245.11 99.9919 245.11 99.2841 245.11 98.6838V98.5942H240.451V98.1282H245.648V98.6838C245.648 99.2841 245.648 99.9919 245.433 100.986H246.588V101.47H239.537ZM241.024 104.983H245.101V103.782H241.024V104.983ZM250.576 98.3343H251.14V98.9436C251.14 100.35 252.825 101.515 254.034 101.757L253.766 102.232C252.681 101.963 251.355 101.103 250.871 99.9113C250.379 101.103 249.062 101.963 247.968 102.232L247.709 101.757C248.918 101.515 250.576 100.35 250.576 98.9436V98.3343ZM247.368 104.463V103.997H254.42V104.463H247.368ZM261.005 97.7519H261.561V105.565H261.005V101.291H259.42V100.825H261.005V97.7519ZM255.477 98.9705V98.5046H258.954V101.166H256.051V103.191H256.077C257.493 103.191 258.47 103.155 259.626 102.931L259.67 103.406C258.497 103.612 257.52 103.657 256.077 103.657H255.495V100.7H258.407V98.9705H255.477ZM263.022 101.766H270.082V102.25H266.892V103.916H266.328V102.25H263.022V101.766ZM263.846 99.535C263.846 98.5583 264.903 97.9759 266.543 97.9759C268.183 97.9759 269.24 98.5583 269.24 99.535C269.24 100.485 268.183 101.067 266.543 101.067C264.903 101.067 263.846 100.485 263.846 99.535ZM263.945 105.368V103.119H264.5V104.893H269.294V105.368H263.945ZM264.419 99.535C264.419 100.18 265.28 100.601 266.543 100.601C267.815 100.601 268.657 100.18 268.657 99.535C268.657 98.863 267.815 98.4418 266.543 98.4418C265.28 98.4418 264.419 98.863 264.419 99.535Z" fill="#000235"/>
<rect x="215.92" y="115.819" width="9.52" height="8.4" rx="1.96" stroke="#000235" stroke-width="0.56"/>
<path d="M232.046 116.674H232.593V117.875H235.057V116.674H235.612V120.07H232.046V116.674ZM232.593 119.613H235.057V118.314H232.593V119.613ZM232.835 121.253V120.805H237.709V122.615H233.399V123.591H238.004V124.048H232.861V122.176H237.162V121.253H232.835ZM237.153 120.41V116.369H237.709V118.108H238.9V118.574H237.709V120.41H237.153ZM244.985 116.36H245.54V118.144H246.741V118.609H245.54V120.464H244.985V116.36ZM239.868 117.185V116.728H243.354V118.592H240.424V119.667H240.478C241.849 119.667 242.879 119.631 244.151 119.434L244.196 119.882C242.906 120.088 241.875 120.124 240.478 120.124H239.886V118.17H242.807V117.185H239.868ZM240.684 121.288V120.849H245.54V122.615H241.248V123.6H245.854V124.048H240.711V122.176H244.993V121.288H240.684ZM252.816 116.369H253.371V119.004H254.563V119.47H253.371V122.211H252.816V116.369ZM247.395 117.83V117.373H249.411V116.369H249.975V117.373H252V117.83H247.395ZM247.834 119.747C247.834 118.878 248.596 118.314 249.698 118.314C250.782 118.314 251.534 118.878 251.534 119.747C251.534 120.625 250.782 121.181 249.698 121.181C248.596 121.181 247.834 120.625 247.834 119.747ZM248.372 119.747C248.372 120.339 248.9 120.733 249.698 120.733C250.477 120.733 251.006 120.339 251.006 119.747C251.006 119.165 250.477 118.753 249.698 118.753C248.9 118.753 248.372 119.165 248.372 119.747ZM248.587 123.968V121.745H249.142V123.502H253.748V123.968H248.587Z" fill="#000235"/>
<rect x="215.92" y="134.42" width="9.52" height="8.4" rx="1.96" stroke="#000235" stroke-width="0.56"/>
<path d="M232.62 135.624H237.843V136.09H233.175V138.671H237.924V139.136H235.487V141.26H238.757V141.744H231.706V141.26H234.94V139.136H232.62V135.624ZM241.651 135.66H242.207V137.156C242.207 138.581 243.264 140.015 244.339 140.525L243.999 140.964C243.121 140.516 242.305 139.549 241.947 138.393C241.589 139.602 240.764 140.633 239.877 141.099L239.519 140.642C240.603 140.113 241.651 138.626 241.651 137.156V135.66ZM245.325 142.765V134.952H245.881V142.765H245.325ZM251.517 137.058H253.183V134.961H253.739V139.629H253.183V137.533H251.517V137.058ZM247.422 139.038C248.533 138.644 249.429 137.586 249.429 136.448V136.009H247.619V135.535H251.767V136.009H249.984V136.439C249.984 137.479 250.836 138.455 251.929 138.859L251.642 139.298C250.764 138.966 250.056 138.294 249.725 137.461C249.402 138.393 248.64 139.127 247.718 139.486L247.422 139.038ZM248.587 140.543V140.077H253.739V142.765H253.183V140.543H248.587ZM260.988 134.97H261.543V140.695H260.988V134.97ZM255.396 137.425C255.396 136.314 256.257 135.526 257.395 135.526C258.55 135.526 259.393 136.314 259.393 137.425C259.393 138.536 258.55 139.316 257.395 139.316C256.257 139.316 255.396 138.536 255.396 137.425ZM255.943 137.425C255.943 138.231 256.57 138.832 257.395 138.832C258.228 138.832 258.855 138.231 258.855 137.425C258.855 136.61 258.228 136.009 257.395 136.009C256.57 136.009 255.943 136.61 255.943 137.425ZM256.615 142.568V140.113H257.171V142.102H261.803V142.568H256.615Z" fill="#000235"/>
<rect x="215.92" y="153.019" width="9.52" height="8.4" rx="1.96" stroke="#000235" stroke-width="0.56"/>
<path d="M237.494 153.57H238.049V159.349H237.494V153.57ZM231.894 157.924C233.014 157.53 233.91 156.526 233.91 155.389V155.12H232.055V154.663H233.91V153.605H234.456V154.663H236.284V155.12H234.447V155.389C234.447 156.464 235.352 157.405 236.472 157.772L236.204 158.211C235.29 157.906 234.528 157.252 234.188 156.401C233.856 157.306 233.094 158.023 232.18 158.354L231.894 157.924ZM233.121 161.168V158.802H233.677V160.702H238.309V161.168H233.121ZM240.451 154.036H245.648V154.618C245.648 155.272 245.648 156.078 245.441 157.189H246.588V157.655H239.537V157.189H244.886C245.11 156.078 245.11 155.281 245.11 154.618V154.501H240.451V154.036ZM240.469 161.159V158.605H241.024V160.693H245.889V161.159H240.469ZM252.816 153.57H253.371V156.204H254.563V156.67H253.371V159.412H252.816V153.57ZM247.395 155.03V154.573H249.411V153.57H249.975V154.573H252V155.03H247.395ZM247.834 156.948C247.834 156.078 248.596 155.514 249.698 155.514C250.782 155.514 251.534 156.078 251.534 156.948C251.534 157.826 250.782 158.381 249.698 158.381C248.596 158.381 247.834 157.826 247.834 156.948ZM248.372 156.948C248.372 157.539 248.9 157.933 249.698 157.933C250.477 157.933 251.006 157.539 251.006 156.948C251.006 156.365 250.477 155.953 249.698 155.953C248.9 155.953 248.372 156.365 248.372 156.948ZM248.587 161.168V158.946H249.142V160.702H253.748V161.168H248.587Z" fill="#000235"/>
<path d="M332.309 72.8691H333.408V73.9174C333.408 75.0968 334.144 76.2257 335.525 76.6894L334.97 77.5462C333.982 77.2035 333.277 76.5181 332.884 75.6512C332.501 76.6088 331.765 77.3547 330.717 77.7277L330.132 76.8709C331.593 76.387 332.309 75.1875 332.309 73.8972V72.8691ZM331.553 81.1246V78.2821H332.642V80.2376H337.591V81.1246H331.553ZM336.15 78.907V72.3248H337.238V74.996H338.478V75.883H337.238V78.907H336.15ZM341.512 72.7179C342.672 72.7179 343.589 73.3832 343.801 74.371H345.403V72.3348H346.492V77.1329H345.403V75.2581H343.811C343.599 76.2661 342.682 76.9414 341.512 76.9414C340.162 76.9414 339.164 76.0645 339.164 74.8246C339.164 73.5948 340.162 72.7179 341.512 72.7179ZM340.202 74.8246C340.202 75.5605 340.746 76.0342 341.512 76.0342C342.258 76.0342 342.803 75.5605 342.803 74.8246C342.803 74.0888 342.258 73.6251 341.512 73.6251C340.746 73.6251 340.202 74.0888 340.202 74.8246ZM340.635 81.1851V77.5563H341.704V78.5341H345.413V77.5563H346.492V81.1851H340.635ZM341.704 80.3081H345.413V79.3707H341.704V80.3081ZM348.861 72.7683H354.98V73.5142C354.98 74.2601 354.98 75.0867 354.778 76.1753H355.967V77.0523H352.5V79.0582H351.411V77.0523H347.843V76.1753H353.679C353.891 75.1371 353.901 74.3508 353.901 73.6352H348.861V72.7683ZM348.821 81.1145V78.2619H349.899V80.2376H355.121V81.1145H348.821Z" fill="#000235"/>
<rect x="329.88" y="96.9395" width="8.96" height="8.96" rx="2.24" fill="#000235"/>
<path d="M332.12 101.419L333.613 103.099L336.6 99.7393" stroke="white" stroke-width="0.56" stroke-linecap="round"/>
<path d="M348.033 98.3343H348.597V98.9436C348.597 100.35 350.282 101.515 351.491 101.757L351.223 102.232C350.139 101.963 348.812 101.103 348.329 99.9113C347.836 101.103 346.519 101.963 345.426 102.232L345.166 101.757C346.375 101.515 348.033 100.35 348.033 98.9436V98.3343ZM344.825 104.463V103.997H351.877V104.463H344.825ZM356.733 98.3612C356.733 100.35 355.64 101.874 353.131 102.698L352.916 102.241C354.287 101.802 355.192 101.139 355.694 100.314L352.943 100.521L352.845 100.037L355.909 99.8934C356.043 99.5618 356.124 99.2034 356.151 98.8361H353.221V98.3612H356.733ZM354.081 105.431V103.047H354.628V104.965H359.26V105.431H354.081ZM358.445 103.424V97.7698H359V103.424H358.445ZM363.884 98.7106C363.884 99.4454 363.794 100.18 363.552 100.879H364.932V97.9759H365.469V105.135H364.932V101.354H363.364C362.916 102.322 362.145 103.209 360.882 103.907L360.559 103.495C361.823 102.814 362.566 101.936 362.97 100.96L360.631 101.193L360.533 100.7L363.122 100.521C363.256 100.082 363.319 99.6246 363.346 99.1586H360.918V98.7106H363.884ZM366.545 105.556V97.7519H367.082V105.556H366.545ZM370.38 98.3791C371.437 98.3791 372.208 99.311 372.288 100.798H374.134V97.7519H374.681V105.565H374.134V101.255H372.297C372.235 102.787 371.455 103.764 370.38 103.764C369.26 103.764 368.471 102.707 368.471 101.067C368.471 99.4274 369.26 98.3791 370.38 98.3791ZM368.991 101.067C368.991 102.384 369.564 103.28 370.38 103.28C371.195 103.28 371.76 102.384 371.76 101.067C371.76 99.7679 371.195 98.8809 370.38 98.8809C369.564 98.8809 368.991 99.7679 368.991 101.067Z" fill="#000235"/>
<rect x="330.16" y="115.819" width="9.52" height="8.4" rx="1.96" stroke="#000235" stroke-width="0.56"/>
<path d="M347.666 116.835H348.203V117.928C348.203 118.833 348.839 119.747 349.825 120.133L349.529 120.563C348.768 120.249 348.203 119.64 347.934 118.923C347.657 119.703 347.074 120.401 346.304 120.76L345.999 120.321C346.985 119.864 347.666 118.824 347.666 117.928V116.835ZM347.316 121.996V121.521H352.477V124.165H351.931V121.996H347.316ZM350.264 121.029V116.504H350.802V118.448H351.949V116.36H352.477V121.073H351.949V118.905H350.802V121.029H350.264ZM353.777 122.641H357.029V120.697H357.576V122.641H360.828V123.116H353.777V122.641ZM354.135 120.491C355.327 120.276 357.02 119.192 357.02 117.902V117.588H354.359V117.113H360.237V117.588H357.576V117.902C357.576 119.192 359.278 120.267 360.479 120.464L360.246 120.912C359.153 120.679 357.8 119.9 357.307 118.789C356.814 119.909 355.461 120.715 354.377 120.948L354.135 120.491Z" fill="#000235"/>
<rect x="330.16" y="134.42" width="9.52" height="8.4" rx="1.96" stroke="#000235" stroke-width="0.56"/>
<path d="M351.393 134.97H351.949V136.386H353.131V136.87H351.949V138.043H353.131V138.518H351.949V140.015H351.393V134.97ZM345.972 136.35V135.893H347.988V134.889H348.553V135.893H350.578V136.35H345.972ZM346.411 138.16C346.411 137.318 347.164 136.807 348.275 136.807C349.368 136.807 350.112 137.318 350.112 138.16C350.112 138.993 349.368 139.531 348.275 139.531C347.164 139.531 346.411 138.993 346.411 138.16ZM346.949 138.16C346.949 138.724 347.477 139.092 348.275 139.092C349.054 139.092 349.583 138.724 349.583 138.16C349.583 137.613 349.054 137.228 348.275 137.228C347.477 137.228 346.949 137.613 346.949 138.16ZM347.029 141.403C347.029 140.561 347.979 140.059 349.538 140.059C351.088 140.059 352.038 140.561 352.038 141.403C352.038 142.237 351.088 142.729 349.538 142.729C347.979 142.729 347.029 142.237 347.029 141.403ZM347.576 141.403C347.576 141.968 348.329 142.29 349.538 142.29C350.739 142.29 351.492 141.968 351.492 141.403C351.492 140.848 350.739 140.516 349.538 140.516C348.329 140.516 347.576 140.848 347.576 141.403ZM357.011 135.257H357.576V135.714C357.576 136.87 359.162 137.801 360.425 138.007L360.192 138.455C359.063 138.249 357.782 137.568 357.298 136.565C356.823 137.577 355.542 138.249 354.395 138.455L354.171 138.007C355.452 137.801 357.011 136.896 357.011 135.714V135.257ZM353.777 139.871V139.396H360.81V139.871H357.549V142.756H357.002V139.871H353.777Z" fill="#000235"/>
<rect x="330.16" y="153.019" width="9.52" height="8.4" rx="1.96" stroke="#000235" stroke-width="0.56"/>
<path d="M352.002 153.561H352.549V161.365H352.002V153.561ZM345.936 155.433V154.958H347.603V153.767H348.158V154.958H349.834V155.433H345.936ZM346.25 157.754C346.25 156.741 346.94 156.016 347.872 156.016C348.813 156.016 349.502 156.741 349.502 157.754C349.502 158.802 348.813 159.51 347.872 159.51C346.94 159.51 346.25 158.802 346.25 157.754ZM346.752 157.754C346.752 158.498 347.227 159.044 347.872 159.044C348.517 159.044 349.001 158.498 349.001 157.754C349.001 157.046 348.517 156.5 347.872 156.5C347.227 156.5 346.752 157.046 346.752 157.754ZM349.601 157.1V156.634H350.56V153.749H351.079V160.953H350.56V157.1H349.601ZM355.837 154.179C356.895 154.179 357.665 155.111 357.746 156.598H359.592V153.552H360.138V161.365H359.592V157.055H357.755C357.692 158.587 356.913 159.564 355.837 159.564C354.717 159.564 353.929 158.507 353.929 156.867C353.929 155.227 354.717 154.179 355.837 154.179ZM354.449 156.867C354.449 158.184 355.022 159.08 355.837 159.08C356.653 159.08 357.217 158.184 357.217 156.867C357.217 155.568 356.653 154.681 355.837 154.681C355.022 154.681 354.449 155.568 354.449 156.867ZM366.975 153.561H367.539V156.688H368.865V157.172H367.539V161.365H366.975V153.561ZM361.93 159.456V154.233H362.486V156.365H364.959V154.233H365.514V159.456H361.93ZM362.486 158.99H364.959V156.804H362.486V158.99ZM375.218 153.552H375.774V161.365H375.218V153.552ZM369.95 159.394V154.313H373.597V154.797H370.505V158.928H370.559C372.073 158.928 373.095 158.865 374.304 158.641L374.358 159.125C373.122 159.34 372.091 159.394 370.559 159.394H369.95Z" fill="#000235"/>
<path d="M444.816 73.1009H449.019V73.988H445.914V75.6008H448.858V76.4576H445.914V78.3224C447.305 78.3123 448.374 78.2619 449.614 78.0704L449.715 78.9373C448.344 79.1691 447.144 79.2094 445.551 79.2094H444.816V73.1009ZM450.329 81.3061V72.3248H451.428V75.8125H452.789V76.7197H451.428V81.3061H450.329ZM459.835 72.3248H460.883V78.2115H459.835V72.3248ZM453.283 77.1733C454.997 76.4475 455.874 75.3891 456.045 73.9779H453.706V73.111H457.174C457.174 73.746 457.093 74.3206 456.922 74.8548H458.041V72.5062H459.059V77.4454H458.041V75.7318H456.529C455.995 76.6693 455.097 77.4152 453.837 77.9797L453.283 77.1733ZM454.311 80.3989C456.105 80.1469 457.255 79.1288 457.255 78.0704V77.7478H458.353V78.0704C458.353 79.1288 459.502 80.1469 461.307 80.3989L460.893 81.2557C459.472 81.0238 458.363 80.3585 457.809 79.4413C457.245 80.3585 456.136 81.0238 454.725 81.2557L454.311 80.3989ZM470.273 72.3147H471.372V75.7822H472.702V76.6995H471.372V81.2859H470.273V72.3147ZM464.699 79.0582V73.1816H465.787V78.151C466.977 78.1309 468.247 78.0401 469.587 77.768L469.698 78.6651C468.206 78.9675 466.795 79.0582 465.455 79.0582H464.699ZM479.516 72.3147H480.615V81.3161H479.516V72.3147ZM473.509 76.135C473.509 74.1996 474.487 72.98 475.827 72.98C477.168 72.98 478.156 74.1996 478.156 76.135C478.156 78.0805 477.168 79.3203 475.827 79.3203C474.487 79.3203 473.509 78.0805 473.509 76.135ZM474.557 76.135C474.557 77.5361 475.081 78.3325 475.827 78.3325C476.593 78.3325 477.107 77.5361 477.107 76.135C477.107 74.7641 476.593 73.9577 475.827 73.9577C475.081 73.9577 474.557 74.7641 474.557 76.135ZM488.649 72.3147H489.697V81.296H488.649V76.7297H487.651V80.8424H486.633V72.4961H487.651V75.8326H488.649V72.3147ZM482.319 79.1893V73.3932H485.635V74.2702H483.397V78.2821C484.365 78.272 485.161 78.2216 486.069 78.0401L486.169 78.9373C485.081 79.159 484.143 79.1893 482.924 79.1893H482.319Z" fill="#000235"/>
<rect x="444.4" y="97.2195" width="9.52" height="8.4" rx="1.96" stroke="#000235" stroke-width="0.56"/>
<path d="M461.467 98.5494V104.821H460.947V99.1138L460.374 99.3289L460.186 98.845L460.947 98.5494H461.467ZM465.061 104.346C466.109 104.346 466.763 103.468 466.763 101.685C466.763 99.9023 466.109 99.0422 465.061 99.0422C464.004 99.0422 463.35 99.9023 463.35 101.685C463.35 103.468 464.004 104.346 465.061 104.346ZM462.812 101.685C462.812 99.6873 463.699 98.5046 465.061 98.5046C466.414 98.5046 467.301 99.6873 467.301 101.685C467.301 103.683 466.414 104.884 465.061 104.884C463.699 104.884 462.812 103.683 462.812 101.685ZM468.381 101.354H472.162V101.882H468.381V101.354ZM473.269 104.203C474.532 102.922 476.459 101.623 476.468 100.404C476.468 99.5439 475.85 99.0511 475.16 99.0511C474.667 99.0511 474.12 99.2393 473.771 100.046L473.269 99.8306C473.717 98.7823 474.559 98.5046 475.16 98.5046C476.083 98.5046 477.014 99.2393 477.014 100.404C477.014 101.766 475.294 103.056 474.058 104.203H477.104V104.75H473.26L473.269 104.203ZM480.251 104.346C481.299 104.346 481.953 103.468 481.953 101.685C481.953 99.9023 481.299 99.0422 480.251 99.0422C479.194 99.0422 478.54 99.9023 478.54 101.685C478.54 103.468 479.194 104.346 480.251 104.346ZM478.002 101.685C478.002 99.6873 478.889 98.5046 480.251 98.5046C481.604 98.5046 482.491 99.6873 482.491 101.685C482.491 103.683 481.604 104.884 480.251 104.884C478.889 104.884 478.002 103.683 478.002 101.685ZM489.377 97.7519H489.915V105.556H489.377V101.408H488.123V105.144H487.594V97.949H488.123V100.933H489.377V97.7519ZM483.634 103.567V98.7375H486.537V99.1855H484.189V103.092C485.363 103.092 486.116 103.065 486.994 102.85L487.057 103.325C486.125 103.531 485.363 103.567 484.136 103.567H483.634Z" fill="#000235"/>
<rect x="444.12" y="115.539" width="8.96" height="8.96" rx="2.24" fill="#000235"/>
<path d="M446.36 120.019L447.854 121.699L450.84 118.339" stroke="white" stroke-width="0.56" stroke-linecap="round"/>
<path d="M459.164 122.803C460.427 121.521 462.354 120.222 462.363 119.004C462.363 118.144 461.744 117.651 461.055 117.651C460.562 117.651 460.015 117.839 459.666 118.645L459.164 118.43C459.612 117.382 460.454 117.104 461.055 117.104C461.977 117.104 462.909 117.839 462.909 119.004C462.909 120.366 461.189 121.656 459.952 122.803H462.999V123.349H459.155L459.164 122.803ZM466.146 122.946C467.194 122.946 467.848 122.068 467.848 120.285C467.848 118.502 467.194 117.642 466.146 117.642C465.089 117.642 464.435 118.502 464.435 120.285C464.435 122.068 465.089 122.946 466.146 122.946ZM463.897 120.285C463.897 118.287 464.784 117.104 466.146 117.104C467.499 117.104 468.386 118.287 468.386 120.285C468.386 122.283 467.499 123.484 466.146 123.484C464.784 123.484 463.897 122.283 463.897 120.285ZM469.466 119.953H473.247V120.482H469.466V119.953ZM477.374 120.177C478.01 120.455 478.44 121.02 478.44 121.647C478.44 122.704 477.472 123.475 476.379 123.475C475.295 123.475 474.327 122.704 474.327 121.647H474.856C474.856 122.274 475.474 122.937 476.379 122.937C477.293 122.937 477.911 122.283 477.911 121.674C477.911 121.047 477.481 120.428 476.397 120.428H476.03V119.909H476.397C477.338 119.909 477.831 119.389 477.831 118.762C477.831 118.233 477.266 117.615 476.433 117.615C475.599 117.615 475.044 118.206 475.044 118.807H474.497C474.497 117.821 475.42 117.095 476.433 117.095C477.445 117.095 478.35 117.821 478.35 118.807C478.35 119.38 477.983 119.864 477.374 120.177ZM481.59 122.946C482.638 122.946 483.292 122.068 483.292 120.285C483.292 118.502 482.638 117.642 481.59 117.642C480.532 117.642 479.878 118.502 479.878 120.285C479.878 122.068 480.532 122.946 481.59 122.946ZM479.341 120.285C479.341 118.287 480.228 117.104 481.59 117.104C482.943 117.104 483.83 118.287 483.83 120.285C483.83 122.283 482.943 123.484 481.59 123.484C480.228 123.484 479.341 122.283 479.341 120.285ZM490.716 116.352H491.254V124.156H490.716V120.007H489.462V123.744H488.933V116.549H489.462V119.532H490.716V116.352ZM484.973 122.167V117.337H487.876V117.785H485.528V121.692C486.702 121.692 487.455 121.665 488.333 121.45L488.395 121.925C487.463 122.131 486.702 122.167 485.474 122.167H484.973Z" fill="#000235"/>
<rect x="444.4" y="134.42" width="9.52" height="8.4" rx="1.96" stroke="#000235" stroke-width="0.56"/>
<path d="M463.304 138.778C463.94 139.056 464.37 139.62 464.37 140.247C464.37 141.305 463.402 142.075 462.309 142.075C461.225 142.075 460.257 141.305 460.257 140.247H460.786C460.786 140.875 461.404 141.538 462.309 141.538C463.223 141.538 463.841 140.884 463.841 140.274C463.841 139.647 463.411 139.029 462.327 139.029H461.96V138.509H462.327C463.268 138.509 463.761 137.99 463.761 137.362C463.761 136.834 463.196 136.215 462.363 136.215C461.53 136.215 460.974 136.807 460.974 137.407H460.427C460.427 136.422 461.35 135.696 462.363 135.696C463.375 135.696 464.28 136.422 464.28 137.407C464.28 137.981 463.913 138.464 463.304 138.778ZM467.52 141.547C468.568 141.547 469.222 140.669 469.222 138.886C469.222 137.103 468.568 136.242 467.52 136.242C466.462 136.242 465.808 137.103 465.808 138.886C465.808 140.669 466.462 141.547 467.52 141.547ZM465.271 138.886C465.271 136.887 466.158 135.705 467.52 135.705C468.873 135.705 469.76 136.887 469.76 138.886C469.76 140.884 468.873 142.084 467.52 142.084C466.158 142.084 465.271 140.884 465.271 138.886ZM470.84 138.554H474.621V139.083H470.84V138.554ZM479.195 135.75V139.88H480.208V140.391H479.195V142.022H478.676V140.391H475.701V139.871L478.676 135.75H479.195ZM476.346 139.88H478.676V136.646L476.346 139.88ZM483.349 141.547C484.397 141.547 485.051 140.669 485.051 138.886C485.051 137.103 484.397 136.242 483.349 136.242C482.291 136.242 481.637 137.103 481.637 138.886C481.637 140.669 482.291 141.547 483.349 141.547ZM481.1 138.886C481.1 136.887 481.987 135.705 483.349 135.705C484.701 135.705 485.589 136.887 485.589 138.886C485.589 140.884 484.701 142.084 483.349 142.084C481.987 142.084 481.1 140.884 481.1 138.886ZM492.475 134.952H493.012V142.756H492.475V138.608H491.22V142.344H490.692V135.149H491.22V138.133H492.475V134.952ZM486.731 140.767V135.938H489.635V136.386H487.287V140.292C488.461 140.292 489.213 140.265 490.091 140.05L490.154 140.525C489.222 140.731 488.461 140.767 487.233 140.767H486.731Z" fill="#000235"/>
<rect x="444.4" y="153.019" width="9.52" height="8.4" rx="1.96" stroke="#000235" stroke-width="0.56"/>
<path d="M463.752 154.349V158.48H464.764V158.99H463.752V160.621H463.232V158.99H460.257V158.471L463.232 154.349H463.752ZM460.902 158.48H463.232V155.245L460.902 158.48ZM467.905 160.146C468.953 160.146 469.607 159.268 469.607 157.485C469.607 155.702 468.953 154.842 467.905 154.842C466.847 154.842 466.193 155.702 466.193 157.485C466.193 159.268 466.847 160.146 467.905 160.146ZM465.656 157.485C465.656 155.487 466.543 154.304 467.905 154.304C469.258 154.304 470.145 155.487 470.145 157.485C470.145 159.483 469.258 160.684 467.905 160.684C466.543 160.684 465.656 159.483 465.656 157.485ZM477.031 153.552H477.569V161.356H477.031V157.207H475.777V160.944H475.248V153.749H475.777V156.733H477.031V153.552ZM471.288 159.367V154.537H474.191V154.985H471.843V158.892C473.017 158.892 473.77 158.865 474.648 158.65L474.71 159.125C473.779 159.331 473.017 159.367 471.789 159.367H471.288ZM486.659 153.552H487.214V161.365H486.659V153.552ZM481.193 156.867C481.193 155.227 482.008 154.179 483.146 154.179C484.284 154.179 485.099 155.227 485.099 156.867C485.099 158.507 484.284 159.564 483.146 159.564C482.008 159.564 481.193 158.507 481.193 156.867ZM481.731 156.867C481.731 158.184 482.313 159.08 483.146 159.08C483.979 159.08 484.562 158.184 484.562 156.867C484.562 155.568 483.979 154.681 483.146 154.681C482.313 154.681 481.731 155.568 481.731 156.867ZM490.673 153.955H491.219V154.824C491.219 155.926 492.089 156.921 493.173 157.315L492.868 157.754C492.008 157.413 491.291 156.733 490.969 155.863C490.646 156.84 489.911 157.593 489.006 157.978L488.702 157.512C489.822 157.1 490.673 156.043 490.673 154.797V153.955ZM489.723 159.949C489.723 159.08 490.673 158.56 492.259 158.56C493.836 158.56 494.785 159.08 494.785 159.949C494.785 160.827 493.836 161.329 492.259 161.329C490.673 161.329 489.723 160.827 489.723 159.949ZM490.27 159.949C490.27 160.532 491.04 160.89 492.259 160.89C493.468 160.89 494.248 160.532 494.248 159.949C494.248 159.358 493.468 159.017 492.259 159.017C491.04 159.017 490.27 159.358 490.27 159.949ZM494.158 158.327V153.561H494.723V155.657H495.914V156.132H494.723V158.327H494.158Z" fill="#000235"/>
<path d="M564.579 72.3147H565.668V75.8326H566.998V76.7398H565.668V81.2859H564.579V72.3147ZM558.682 78.8465C560.829 77.7377 562.009 76.1955 562.221 74.1492H559.126V73.2622H563.309C563.309 75.8931 562.231 78.2014 559.277 79.6731L558.682 78.8465ZM572.25 72.9094C572.25 73.232 572.22 73.5344 572.17 73.8267H573.883V72.3248H574.972V77.6672H573.883V76.6189H571.756V75.7318H573.883V74.7036H571.898C571.303 76.0947 569.962 77.0926 568.047 77.6168L567.634 76.7499C569.69 76.2056 570.89 75.127 571.081 73.7864H568.118V72.9094H572.25ZM568.914 78.9171V78.0401H574.972V81.2657H573.883V78.9171H568.914ZM582.945 72.3147H583.994V81.296H582.945V76.7297H581.948V80.8424H580.929V72.4961H581.948V75.8326H582.945V72.3147ZM576.615 79.1893V73.3932H579.932V74.2702H577.694V78.2821C578.661 78.272 579.458 78.2216 580.365 78.0401L580.466 78.9373C579.377 79.159 578.44 79.1893 577.22 79.1893H576.615Z" fill="#000235"/>
<rect x="558.64" y="97.2195" width="9.52" height="8.4" rx="1.96" stroke="#000235" stroke-width="0.56"/>
<path d="M580.24 97.7519H580.787V105.565H580.24V101.094H578.439V100.646H580.24V97.7519ZM574.389 103.54C575.447 103.011 576.477 101.551 576.477 100.18V99.0422H574.658V98.5762H578.852V99.0422H577.033V100.18C577.033 101.452 578.063 102.868 579.111 103.379L578.789 103.827C577.929 103.388 577.122 102.42 576.764 101.327C576.414 102.492 575.581 103.522 574.73 103.988L574.389 103.54ZM587.633 97.7519H588.188V100.995H589.496V101.47H588.188V105.556H587.633V97.7519ZM582.346 103.585C584.407 102.563 585.518 100.951 585.652 99.078H582.678V98.6121H586.208C586.208 100.78 585.142 102.778 582.651 104.024L582.346 103.585ZM597.529 97.7519H598.084V100.915H599.41V101.399H598.084V105.565H597.529V97.7519ZM592.44 98.9794V98.5046H595.925V101.219H593.004V103.182H593.067C594.572 103.182 595.593 103.137 596.794 102.895L596.848 103.37C595.62 103.594 594.599 103.657 593.067 103.657H592.457V100.745H595.387V98.9794H592.44ZM605.772 97.7698H606.328V103.495H605.772V97.7698ZM600.181 100.225C600.181 99.1138 601.041 98.3254 602.179 98.3254C603.335 98.3254 604.177 99.1138 604.177 100.225C604.177 101.336 603.335 102.115 602.179 102.115C601.041 102.115 600.181 101.336 600.181 100.225ZM600.728 100.225C600.728 101.031 601.355 101.632 602.179 101.632C603.013 101.632 603.64 101.031 603.64 100.225C603.64 99.4095 603.013 98.8092 602.179 98.8092C601.355 98.8092 600.728 99.4095 600.728 100.225ZM601.4 105.368V102.913H601.955V104.902H606.588V105.368H601.4Z" fill="#000235"/>
<rect x="558.36" y="115.539" width="8.96" height="8.96" rx="2.24" fill="#000235"/>
<path d="M560.6 120.019L562.093 121.699L565.08 118.339" stroke="white" stroke-width="0.56" stroke-linecap="round"/>
<path d="M573.305 120.043H580.339V120.509H577.086V121.423C578.583 121.468 579.47 121.952 579.47 122.785C579.47 123.636 578.475 124.129 576.818 124.129C575.151 124.129 574.165 123.636 574.165 122.785C574.165 121.96 575.043 121.468 576.54 121.423V120.509H573.305V120.043ZM573.735 119.057C574.999 118.914 576.486 118.197 576.486 117.212V117.185H573.95V116.737H579.703V117.185H577.167V117.212C577.167 118.197 578.636 118.914 579.909 119.057L579.703 119.505C578.52 119.344 577.248 118.771 576.826 117.866C576.396 118.78 575.124 119.344 573.941 119.505L573.735 119.057ZM574.721 122.785C574.721 123.349 575.536 123.69 576.818 123.69C578.099 123.69 578.905 123.349 578.905 122.785C578.905 122.202 578.099 121.871 576.818 121.871C575.536 121.871 574.721 122.202 574.721 122.785ZM586.951 116.352H587.498V124.165H586.951V119.694H585.151V119.246H586.951V116.352ZM581.101 122.14C582.158 121.611 583.188 120.151 583.188 118.78V117.642H581.369V117.176H585.563V117.642H583.744V118.78C583.744 120.052 584.774 121.468 585.823 121.978L585.5 122.426C584.64 121.987 583.833 121.02 583.475 119.927C583.126 121.091 582.292 122.122 581.441 122.588L581.101 122.14ZM594.344 116.352H594.899V119.595H596.207V120.07H594.899V124.156H594.344V116.352ZM589.057 122.184C591.118 121.163 592.229 119.55 592.364 117.678H589.389V117.212H592.919C592.919 119.38 591.853 121.378 589.362 122.624L589.057 122.184ZM604.24 116.352H604.795V119.514H606.122V119.998H604.795V124.165H604.24V116.352ZM599.151 117.579V117.104H602.636V119.819H599.715V121.781H599.778C601.283 121.781 602.305 121.736 603.505 121.495L603.559 121.969C602.331 122.193 601.31 122.256 599.778 122.256H599.169V119.344H602.099V117.579H599.151ZM612.483 116.369H613.039V122.095H612.483V116.369ZM606.892 118.824C606.892 117.713 607.752 116.925 608.89 116.925C610.046 116.925 610.888 117.713 610.888 118.824C610.888 119.936 610.046 120.715 608.89 120.715C607.752 120.715 606.892 119.936 606.892 118.824ZM607.439 118.824C607.439 119.631 608.066 120.231 608.89 120.231C609.724 120.231 610.351 119.631 610.351 118.824C610.351 118.009 609.724 117.409 608.89 117.409C608.066 117.409 607.439 118.009 607.439 118.824ZM608.111 123.968V121.512H608.666V123.502H613.299V123.968H608.111Z" fill="#000235"/>
<rect x="558.64" y="134.42" width="9.52" height="8.4" rx="1.96" stroke="#000235" stroke-width="0.56"/>
<path d="M574.425 141.242H581.477V141.717H574.425V141.242ZM575.061 136.251V135.785H580.787V136.251H579.524V139.101H580.778V139.567H575.079V139.101H576.343V136.251H575.061ZM576.898 139.101H578.968V136.251H576.898V139.101ZM588.054 134.952H588.6V142.765H588.054V134.952ZM582.705 136.18V135.705H586.271V138.411H583.278V140.382H583.35C584.622 140.382 585.814 140.337 587.247 140.095L587.301 140.561C585.841 140.794 584.649 140.848 583.35 140.848H582.722V137.936H585.715V136.18H582.705ZM590.554 135.75H594.066V140.749H590.554V135.75ZM591.1 140.301H593.537V136.207H591.1V140.301ZM595.867 142.765V134.952H596.423V142.765H595.867ZM600.043 135.427C601.091 135.427 601.888 136.045 602.014 136.986H603.734V134.97H604.29V139.459H603.734V137.443H602.023C601.924 138.402 601.118 139.047 600.043 139.047C598.878 139.047 598.053 138.312 598.053 137.246C598.053 136.162 598.878 135.427 600.043 135.427ZM598.591 137.246C598.591 138.025 599.191 138.59 600.043 138.59C600.876 138.59 601.485 138.025 601.485 137.246C601.485 136.466 600.876 135.902 600.043 135.902C599.191 135.902 598.591 136.466 598.591 137.246ZM599.29 142.64V139.88H604.29V142.64H599.29ZM599.837 142.183H603.743V140.337H599.837V142.183ZM613.191 134.952H613.747V138.115H615.073V138.599H613.747V142.765H613.191V134.952ZM608.102 136.18V135.705H611.587V138.42H608.667V140.382H608.729C610.235 140.382 611.256 140.337 612.457 140.095L612.51 140.57C611.283 140.794 610.261 140.857 608.729 140.857H608.12V137.945H611.05V136.18H608.102ZM621.435 134.97H621.99V140.695H621.435V134.97ZM615.844 137.425C615.844 136.314 616.704 135.526 617.842 135.526C618.998 135.526 619.84 136.314 619.84 137.425C619.84 138.536 618.998 139.316 617.842 139.316C616.704 139.316 615.844 138.536 615.844 137.425ZM616.39 137.425C616.39 138.231 617.017 138.832 617.842 138.832C618.675 138.832 619.302 138.231 619.302 137.425C619.302 136.61 618.675 136.009 617.842 136.009C617.017 136.009 616.39 136.61 616.39 137.425ZM617.062 142.568V140.113H617.618V142.102H622.25V142.568H617.062Z" fill="#000235"/>
<rect x="23.07" y="40.1891" width="668.5" height="228.66" rx="11.13" stroke="#000235" stroke-opacity="0.3" stroke-width="0.14" shape-rendering="crispEdges"/>
</g>
<g filter="url(#filter1_d_2806_36147)">
<rect x="232" y="228" width="367.96" height="55.1447" rx="27.5723" fill="#FF7145" shape-rendering="crispEdges"/>
<path d="M370.474 248.858H372.416V256.045H370.474V248.858ZM360.985 254.244L362.473 254.229V251.207H361.346V249.704H368.908V251.207H367.781V254.025C368.345 253.978 368.908 253.931 369.441 253.869L369.535 255.262C366.779 255.716 363.6 255.763 361.189 255.779L360.985 254.244ZM362.958 258.112V256.624H372.416V260.367H364.9V261.275H372.823V262.794H362.99V258.973H370.49V258.112H362.958ZM364.336 254.197L365.886 254.135V251.207H364.336V254.197ZM384.238 248.827H386.179V262.919H384.238V255.403H381.779V253.806H384.238V248.827ZM375.062 259.725V250.017H381.56V251.598H377.004V253.947H381.075V255.466H377.004V258.143C378.945 258.128 380.495 258.081 382.233 257.799L382.406 259.349C380.386 259.678 378.57 259.725 376.19 259.725H375.062ZM399.371 252.225H401.5V248.858H403.458V257.204H401.5V253.822H399.371V252.225ZM391.667 255.56C393.938 254.792 394.987 252.96 395.002 251.191H392.2V249.641H399.731V251.191H396.975C396.991 252.835 397.993 254.542 400.169 255.293L399.23 256.828C397.68 256.311 396.631 255.278 396.02 254.01C395.409 255.419 394.298 256.546 392.638 257.094L391.667 255.56ZM393.922 259.396V257.846H403.458V262.903H401.5V259.396H393.922ZM405.384 255.544H408.281V253.837C407.263 253.368 406.683 252.647 406.683 251.739C406.683 250.079 408.656 249.062 411.741 249.062C414.826 249.062 416.798 250.079 416.798 251.739C416.798 252.663 416.203 253.383 415.17 253.837V255.544H418.098V257.078H405.384V255.544ZM406.856 260.351C406.856 258.738 408.672 257.814 411.71 257.814C414.747 257.814 416.579 258.738 416.579 260.351C416.579 261.979 414.747 262.903 411.71 262.903C408.672 262.903 406.856 261.979 406.856 260.351ZM408.688 251.739C408.688 252.553 409.799 252.96 411.741 252.96C413.698 252.96 414.794 252.553 414.794 251.739C414.794 250.956 413.698 250.549 411.741 250.549C409.799 250.549 408.688 250.956 408.688 251.739ZM408.813 260.351C408.813 261.071 409.815 261.416 411.71 261.416C413.62 261.416 414.606 261.071 414.606 260.351C414.606 259.631 413.62 259.271 411.71 259.271C409.815 259.271 408.813 259.631 408.813 260.351ZM410.222 255.544H413.228V254.338C412.774 254.401 412.273 254.432 411.741 254.432C411.193 254.432 410.692 254.401 410.222 254.338V255.544ZM428.135 248.858H430.061V254.37H432.112V255.982H430.061V262.903H428.135V248.858ZM419.022 252.506V250.956H422.138V249.077H424.111V250.956H427.196V252.506H419.022ZM419.602 256.656C419.602 254.698 421.105 253.321 423.125 253.321C425.16 253.321 426.679 254.698 426.679 256.656C426.679 258.613 425.16 259.991 423.125 259.991C421.105 259.991 419.602 258.613 419.602 256.656ZM421.449 256.656C421.449 257.736 422.169 258.409 423.125 258.409C424.111 258.409 424.831 257.736 424.831 256.656C424.831 255.575 424.111 254.902 423.125 254.902C422.169 254.902 421.449 255.575 421.449 256.656ZM442.525 248.842H444.467V262.888H442.525V248.842ZM432.849 258.957C436.434 257.235 438.016 254.98 438.313 251.864H433.569V250.299H440.302C440.302 254.589 438.814 258.096 433.866 260.492L432.849 258.957ZM451.207 255.92C451.207 253.54 451.912 251.316 453.133 249.375H455.09C453.713 251.285 452.898 253.524 452.898 255.92C452.898 258.315 453.713 260.555 455.09 262.465H453.133C451.912 260.523 451.207 258.3 451.207 255.92ZM460.774 259.803C462.042 259.803 462.904 259.098 462.904 257.877C462.904 256.718 462.011 255.935 460.774 255.935C459.537 255.935 458.66 256.718 458.66 257.877C458.66 259.098 459.506 259.803 460.774 259.803ZM456.781 257.877C456.781 257.282 456.922 256.734 457.188 256.233H457.157L460.571 250.189H462.731L460.539 254.056H460.774C462.857 254.056 464.782 255.748 464.782 257.877C464.782 260.116 462.841 261.682 460.774 261.682C458.707 261.682 456.781 260.116 456.781 257.877ZM470.352 255.92C470.352 258.3 469.647 260.523 468.426 262.465H466.469C467.846 260.555 468.661 258.315 468.661 255.92C468.661 253.524 467.846 251.285 466.469 249.375H468.426C469.647 251.316 470.352 253.54 470.352 255.92Z" fill="white"/>
<rect x="232.245" y="228.245" width="367.471" height="54.6554" rx="27.3277" stroke="#FF7145" stroke-width="0.489308" shape-rendering="crispEdges"/>
</g>
<rect x="23" width="54.96" height="25.76" rx="5.6" fill="#FF7145"/>
<path d="M37.7698 9.39689C37.6399 9.39689 37.5152 9.44933 37.4233 9.54265C37.3314 9.63598 37.2798 9.76255 37.2798 9.89454C37.2798 10.0265 37.3314 10.1531 37.4233 10.2464C37.5152 10.3397 37.6399 10.3922 37.7698 10.3922C37.8998 10.3922 38.0244 10.3397 38.1163 10.2464C38.2082 10.1531 38.2598 10.0265 38.2598 9.89454C38.2598 9.76255 38.2082 9.63598 38.1163 9.54265C38.0244 9.44933 37.8998 9.39689 37.7698 9.39689ZM36.3831 9.39689C36.4844 9.10551 36.6721 8.85319 36.9205 8.67471C37.1688 8.49623 37.4656 8.40039 37.7698 8.40039C38.0741 8.40039 38.3708 8.49623 38.6192 8.67471C38.8676 8.85319 39.0553 9.10551 39.1565 9.39689H42.6698C42.7998 9.39689 42.9244 9.44933 43.0163 9.54265C43.1082 9.63598 43.1598 9.76255 43.1598 9.89454C43.1598 10.0265 43.1082 10.1531 43.0163 10.2464C42.9244 10.3397 42.7998 10.3922 42.6698 10.3922H39.1565C39.0553 10.6836 38.8676 10.9359 38.6192 11.1144C38.3708 11.2928 38.0741 11.3887 37.7698 11.3887C37.4656 11.3887 37.1688 11.2928 36.9205 11.1144C36.6721 10.9359 36.4844 10.6836 36.3831 10.3922H35.8098C35.6799 10.3922 35.5552 10.3397 35.4633 10.2464C35.3714 10.1531 35.3198 10.0265 35.3198 9.89454C35.3198 9.76255 35.3714 9.63598 35.4633 9.54265C35.5552 9.44933 35.6799 9.39689 35.8098 9.39689H36.3831ZM40.7098 12.3827C40.5799 12.3827 40.4552 12.4352 40.3633 12.5285C40.2715 12.6218 40.2198 12.7484 40.2198 12.8804C40.2198 13.0124 40.2715 13.139 40.3633 13.2323C40.4552 13.3256 40.5799 13.378 40.7098 13.378C40.8398 13.378 40.9644 13.3256 41.0563 13.2323C41.1482 13.139 41.1998 13.0124 41.1998 12.8804C41.1998 12.7484 41.1482 12.6218 41.0563 12.5285C40.9644 12.4352 40.8398 12.3827 40.7098 12.3827ZM39.3231 12.3827C39.4244 12.0914 39.6121 11.839 39.8605 11.6606C40.1088 11.4821 40.4056 11.3862 40.7098 11.3862C41.0141 11.3862 41.3108 11.4821 41.5592 11.6606C41.8076 11.839 41.9953 12.0914 42.0965 12.3827H42.6698C42.7998 12.3827 42.9244 12.4352 43.0163 12.5285C43.1082 12.6218 43.1598 12.7484 43.1598 12.8804C43.1598 13.0124 43.1082 13.139 43.0163 13.2323C42.9244 13.3256 42.7998 13.378 42.6698 13.378H42.0965C41.9953 13.6694 41.8076 13.9217 41.5592 14.1002C41.3108 14.2787 41.0141 14.3745 40.7098 14.3745C40.4056 14.3745 40.1088 14.2787 39.8605 14.1002C39.6121 13.9217 39.4244 13.6694 39.3231 13.378H35.8098C35.6799 13.378 35.5552 13.3256 35.4633 13.2323C35.3714 13.139 35.3198 13.0124 35.3198 12.8804C35.3198 12.7484 35.3714 12.6218 35.4633 12.5285C35.5552 12.4352 35.6799 12.3827 35.8098 12.3827H39.3231ZM37.7698 15.3686C37.6399 15.3686 37.5152 15.421 37.4233 15.5144C37.3314 15.6077 37.2798 15.7343 37.2798 15.8662C37.2798 15.9982 37.3314 16.1248 37.4233 16.2181C37.5152 16.3115 37.6399 16.3639 37.7698 16.3639C37.8998 16.3639 38.0244 16.3115 38.1163 16.2181C38.2082 16.1248 38.2598 15.9982 38.2598 15.8662C38.2598 15.7343 38.2082 15.6077 38.1163 15.5144C38.0244 15.421 37.8998 15.3686 37.7698 15.3686ZM36.3831 15.3686C36.4844 15.0772 36.6721 14.8249 36.9205 14.6464C37.1688 14.4679 37.4656 14.3721 37.7698 14.3721C38.0741 14.3721 38.3708 14.4679 38.6192 14.6464C38.8676 14.8249 39.0553 15.0772 39.1565 15.3686H42.6698C42.7998 15.3686 42.9244 15.421 43.0163 15.5144C43.1082 15.6077 43.1598 15.7343 43.1598 15.8662C43.1598 15.9982 43.1082 16.1248 43.0163 16.2181C42.9244 16.3115 42.7998 16.3639 42.6698 16.3639H39.1565C39.0553 16.6553 38.8676 16.9076 38.6192 17.0861C38.3708 17.2645 38.0741 17.3604 37.7698 17.3604C37.4656 17.3604 37.1688 17.2645 36.9205 17.0861C36.6721 16.9076 36.4844 16.6553 36.3831 16.3639H35.8098C35.6799 16.3639 35.5552 16.3115 35.4633 16.2181C35.3714 16.1248 35.3198 15.9982 35.3198 15.8662C35.3198 15.7343 35.3714 15.6077 35.4633 15.5144C35.5552 15.421 35.6799 15.3686 35.8098 15.3686H36.3831Z" fill="white"/>
<path d="M55.4327 8.73524H56.5214V13.3418H55.4327V8.73524ZM49.2638 12.2431H50.2818V10.1464H49.5057V9.29972H54.3138V10.1464H53.5377V12.112C53.9308 12.0818 54.3239 12.0415 54.6969 12.0012L54.7473 12.7874C52.9833 13.0696 50.937 13.12 49.3847 13.12L49.2638 12.2431ZM50.554 14.5816V13.7349H56.5214V16.0432H51.6527V16.7589H56.8137V17.6157H50.5742V15.257H55.4428V14.5816H50.554ZM51.3201 12.2229C51.7031 12.2128 52.0962 12.1927 52.4894 12.1725V10.1464H51.3201V12.2229ZM64.2832 8.71508H65.3718V17.7165H64.2832V12.858H62.6099V11.9709H64.2832V8.71508ZM58.336 15.63V9.50132H62.4688V10.3884H59.4146V12.0112H62.1362V12.868H59.4146V14.7429C60.7754 14.7328 61.7934 14.6824 62.9526 14.4909L63.0534 15.3679C61.7531 15.5896 60.6141 15.63 59.0315 15.63H58.336Z" fill="white"/>
<defs>
<filter id="filter0_d_2806_36147" x="0.599993" y="17.7191" width="713.44" height="273.6" filterUnits="userSpaceOnUse" color-interpolation-filters="sRGB">
<feFlood flood-opacity="0" result="BackgroundImageFix"/>
<feColorMatrix in="SourceAlpha" type="matrix" values="0 0 0 0 0 0 0 0 0 0 0 0 0 0 0 0 0 0 127 0" result="hardAlpha"/>
<feOffset/>
<feGaussianBlur stdDeviation="11.2"/>
<feComposite in2="hardAlpha" operator="out"/>
<feColorMatrix type="matrix" values="0 0 0 0 0.620833 0 0 0 0 0.620833 0 0 0 0 0.620833 0 0 0 0.12 0"/>
<feBlend mode="normal" in2="BackgroundImageFix" result="effect1_dropShadow_2806_36147"/>
<feBlend mode="normal" in="SourceGraphic" in2="effect1_dropShadow_2806_36147" result="shape"/>
</filter>
<filter id="filter1_d_2806_36147" x="202.641" y="202.556" width="426.677" height="113.862" filterUnits="userSpaceOnUse" color-interpolation-filters="sRGB">
<feFlood flood-opacity="0" result="BackgroundImageFix"/>
<feColorMatrix in="SourceAlpha" type="matrix" values="0 0 0 0 0 0 0 0 0 0 0 0 0 0 0 0 0 0 127 0" result="hardAlpha"/>
<feOffset dy="3.91447"/>
<feGaussianBlur stdDeviation="14.6793"/>
<feComposite in2="hardAlpha" operator="out"/>
<feColorMatrix type="matrix" values="0 0 0 0 0.619608 0 0 0 0 0.619608 0 0 0 0 0.619608 0 0 0 0.4 0"/>
<feBlend mode="normal" in2="BackgroundImageFix" result="effect1_dropShadow_2806_36147"/>
<feBlend mode="normal" in="SourceGraphic" in2="effect1_dropShadow_2806_36147" result="shape"/>
</filter>
</defs>
</svg>
