<svg width="14" height="18" viewBox="0 0 14 18" fill="none" xmlns="http://www.w3.org/2000/svg">
<path id="Vector" d="M11.2857 1H2.71429C2.25963 1 1.82359 1.19114 1.5021 1.53136C1.18061 1.87158 1 2.33303 1 2.81418V16.5457C1.00002 16.6251 1.01976 16.7031 1.05722 16.772C1.09469 16.8408 1.14857 16.898 1.21349 16.9378C1.27841 16.9777 1.35207 16.9988 1.42712 16.9991C1.50217 16.9994 1.57597 16.9788 1.64114 16.9394L6.14971 14.2136C6.40868 14.057 6.70176 13.9747 7 13.9747C7.29824 13.9747 7.59132 14.057 7.85028 14.2136L12.3589 16.9403C12.4241 16.9797 12.498 17.0003 12.5731 17C12.6482 16.9997 12.7219 16.9785 12.7869 16.9385C12.8518 16.8986 12.9057 16.8412 12.9431 16.7723C12.9805 16.7033 13.0001 16.6252 13 16.5457V2.81418C13 2.33303 12.8194 1.87158 12.4979 1.53136C12.1764 1.19114 11.7404 1 11.2857 1Z" stroke="#FF7145" stroke-width="2" stroke-linecap="round" stroke-linejoin="round"/>
</svg>
